<svg width="1000" height="1000" version="1.1" xmlns="http://www.w3.org/2000/svg" desc="Created with imagetracer.js version 1.2.6" ><path fill="rgb(33,29,31)" stroke="rgb(33,29,31)" stroke-width="1" opacity="1" d="M 410.5 154 L 424 154.5 L 410.5 155 L 410.5 154 Z " /><path fill="rgb(33,29,31)" stroke="rgb(33,29,31)" stroke-width="1" opacity="1" d="M 442.5 155 L 445 155.5 L 442.5 156 L 442.5 155 Z " /><path fill="rgb(33,29,31)" stroke="rgb(33,29,31)" stroke-width="1" opacity="1" d="M 395.5 174 L 441.5 174 L 442.5 175 L 453.5 175 L 454.5 176 L 469.5 177 L 503.5 184 L 534.5 194 Q 574.7 209.3 610.5 229 Q 643.5 246.5 671.5 269 Q 691.9 272.6 706.5 282 Q 724.4 292.6 738 307.5 Q 748.9 319.1 755 335.5 L 754 335.5 Q 744.1 312.9 725.5 299 Q 712.3 287.7 695.5 280 Q 685.7 274.8 672.5 273 Q 624.1 235.9 564.5 210 L 529.5 196 L 500.5 187 L 469.5 181 L 452.5 180 L 423.5 185 L 388.5 194 Q 360.9 202.4 336.5 214 Q 313.9 224.9 294.5 239 Q 276.5 252 262 268.5 Q 239.5 293 228 328.5 L 224 344.5 L 223 356.5 L 222 357.5 L 222 366.5 L 221 367.5 L 221 408.5 L 222 409.5 L 222 424.5 L 223 425.5 L 224 446.5 L 225 447.5 L 225 454.5 L 226 455.5 L 230 486.5 L 239 529.5 L 258 602.5 L 266 628.5 L 280 686.5 L 285 713.5 L 286 726.5 L 287 727.5 L 287 734.5 L 289 743.5 L 289 754.5 L 290 755.5 L 290 767.5 L 291 768.5 L 289.5 768 Q 265.1 759.9 250 742.5 Q 242.1 733.9 238 721.5 L 233 684.5 L 223 642.5 L 223 638.5 L 211 592.5 L 195 539.5 L 184 495.5 L 177 457.5 L 175 433.5 L 174 432.5 L 174 420.5 L 173 419.5 L 173 373.5 L 174 372.5 L 175 354.5 L 179 333.5 L 187 307.5 L 193 293.5 Q 211 257.5 240.5 233 Q 270.3 207.3 310.5 192 L 351.5 180 L 356.5 180 L 375.5 176 L 382.5 176 L 383.5 175 L 394.5 175 L 395.5 174 Z " /><path fill="rgb(33,29,31)" stroke="rgb(33,29,31)" stroke-width="1" opacity="1" d="M 215.5 228 L 205.5 239 L 215.5 228 Z " /><path fill="rgb(33,29,31)" stroke="rgb(33,29,31)" stroke-width="1" opacity="1" d="M 200.5 244 L 198.5 247 L 200.5 244 Z " /><path fill="rgb(33,29,31)" stroke="rgb(33,29,31)" stroke-width="1" opacity="1" d="M 674.5 246 L 675.5 248 L 674.5 246 Z " /><path fill="rgb(33,29,31)" stroke="rgb(33,29,31)" stroke-width="1" opacity="1" d="M 195.5 250 L 194.5 252 L 195.5 250 Z " /><path fill="rgb(33,29,31)" stroke="rgb(33,29,31)" stroke-width="1" opacity="1" d="M 189.5 258 L 188.5 260 L 189.5 258 Z " /><path fill="rgb(33,29,31)" stroke="rgb(33,29,31)" stroke-width="1" opacity="1" d="M 731.5 275 L 732.5 277 L 731.5 275 Z " /><path fill="rgb(33,29,31)" stroke="rgb(33,29,31)" stroke-width="1" opacity="1" d="M 736.5 279 L 737.5 281 L 736.5 279 Z " /><path fill="rgb(33,29,31)" stroke="rgb(33,29,31)" stroke-width="1" opacity="1" d="M 742.5 284 L 751.5 294 L 742.5 284 Z " /><path fill="rgb(33,29,31)" stroke="rgb(33,29,31)" stroke-width="1" opacity="1" d="M 679.5 297 L 697.5 298 L 712.5 303 Q 731.3 312.7 744 328.5 L 757.5 348 L 759 347.5 L 758 350 Q 761.3 348.7 760 353.5 L 763 362.5 L 769 393.5 L 769 399.5 L 774 426.5 L 775 441.5 L 777.5 446 L 781.5 448 L 793 459.5 Q 799.5 466.8 802 477 L 806.5 479 L 817 488.5 Q 830.3 502.2 830 529.5 Q 826.2 552.2 816 568.5 Q 805.7 587.2 791.5 602 L 790 579.5 Q 787.9 570.6 781.5 566 Q 777.2 562.3 767.5 564 L 752.5 571 L 730.5 591 Q 712.1 601.6 689.5 608 L 667.5 613 L 654.5 614 L 653.5 615 L 643.5 615 L 642.5 616 L 557.5 618 L 556.5 619 L 538.5 620 L 515.5 626 L 502 634 L 497 641.5 L 496 649.5 Q 498.1 657.4 504.5 661 L 521.5 668 L 548.5 670 L 549.5 669 L 579.5 668 L 580.5 667 L 589.5 667 L 590.5 666 L 618.5 663 L 630.5 660 L 646.5 658 L 689.5 648 L 739.5 632 Q 764.2 622.5 785 610 L 783.5 620 L 781.5 620 L 751.5 635 L 726.5 645 L 696.5 655 L 666.5 663 L 608.5 673 L 587.5 674 L 586.5 675 L 569.5 675 L 568.5 676 L 549.5 676 L 548.5 675 L 525.5 674 L 501.5 668 Q 484.8 662.2 475 649.5 L 470 640.5 L 467 625.5 L 468 624.5 L 468 615.5 L 472 602.5 Q 477.8 588.3 488.5 579 Q 503.4 566.9 524.5 561 L 542.5 557 L 568.5 556 L 583.5 560 L 620.5 582 L 637.5 590 L 651.5 594 L 669.5 594 Q 691.2 590.2 706.5 580 Q 724.6 568.1 738 551.5 Q 754 530.5 773.5 513 L 790.5 500 L 803.5 494 L 813.5 493 L 818.5 495 L 809.5 485 L 803 480.5 Q 796.7 464.3 784.5 454 L 775 447.5 L 727 374.5 L 705 345.5 L 695.5 336 L 685.5 334 Q 684.3 336.3 679.5 335 L 671 340.5 L 665 352.5 L 664 362.5 L 672 400.5 L 693 464.5 L 692 464.5 L 677 434.5 L 666 403.5 L 655 361.5 L 649 344.5 L 648 331.5 L 651 318.5 Q 654.5 309.5 661.5 304 L 670.5 299 L 679.5 297 Z " /><path fill="rgb(33,29,31)" stroke="rgb(33,29,31)" stroke-width="1" opacity="1" d="M 510.5 309 L 534.5 310 L 554.5 315 Q 577.4 323.1 591 340.5 Q 601.1 353.2 604 372 Q 584.8 360.4 560.5 353 L 540.5 349 L 524.5 349 Q 509.8 352.3 502 362.5 L 493 375.5 L 477 411.5 L 467 431.5 L 448 462.5 L 427 507.5 L 418 536.5 L 413 560.5 L 413 566.5 L 411 574.5 L 411 584.5 L 410 585.5 L 410 620.5 L 411 621.5 L 411 632.5 L 412 633.5 L 412 641.5 L 413 642.5 L 415 661.5 L 424 701.5 L 429 715.5 L 427 714.5 Q 402.9 680.1 390 634.5 L 383 597.5 L 383 586.5 L 382 585.5 L 382 549.5 L 383 548.5 L 383 536.5 L 384 535.5 L 385 518.5 L 391 485.5 L 396 464.5 L 408 425.5 L 424 384.5 L 431 370.5 L 443 352.5 L 457 337.5 L 457 336 L 481.5 318 L 495.5 312 L 510.5 309 Z " /><path fill="rgb(33,29,31)" stroke="rgb(33,29,31)" stroke-width="1" opacity="1" d="M 629 336 L 632 337.5 L 642 359.5 L 651 387.5 L 673 479 Q 704.6 478.2 719 495.5 L 719 499.5 L 715 508.5 L 702.5 524 Q 694 533 680.5 537 Q 671.8 539.8 658.5 538 Q 626.6 532.4 607 514.5 Q 613.6 506.6 623.5 502 L 670 477.5 L 652 397.5 L 642 367.5 L 629 336 Z " /><path fill="rgb(33,29,31)" stroke="rgb(33,29,31)" stroke-width="1" opacity="1" d="M 683.5 342 Q 691.7 340.8 696.5 343 L 710 354.5 L 722 378.5 L 724 388.5 L 724 404.5 L 719 417.5 L 715.5 421 L 708.5 424 L 703.5 424 Q 691.8 421.2 686 412.5 Q 671.7 396.3 670 367.5 L 673 352.5 L 678.5 345 L 683.5 342 Z M 689 346 L 683 348 L 678 354 L 675 367 Q 676 394 690 410 Q 695 416 704 419 Q 710 420 713 417 Q 718 413 719 405 L 719 389 L 717 380 L 706 358 Q 701 348 689 346 Z " /><path fill="rgb(33,29,31)" stroke="rgb(33,29,31)" stroke-width="1" opacity="1" d="M 535.5 358 L 545.5 358 L 557.5 361 Q 570.4 366.1 578 376.5 L 586 393.5 L 587 408.5 L 583 423.5 L 573 438 L 564.5 444 L 552.5 449 Q 545 451.5 533.5 450 Q 513.7 446.3 504 432.5 L 496 416.5 Q 493.4 408.6 495 396.5 Q 498.9 378.9 510.5 369 Q 520 360.5 535.5 358 Z M 536 363 Q 522 365 514 373 Q 504 382 500 397 L 500 412 Q 502 423 508 430 Q 517 441 534 445 L 549 445 Q 558 443 565 438 Q 579 429 582 409 Q 583 389 574 380 Q 567 370 555 365 L 547 363 L 536 363 Z " /><path fill="rgb(33,29,31)" stroke="rgb(33,29,31)" stroke-width="1" opacity="1" d="M 702.5 366 Q 708.4 366.6 711 370.5 Q 715.2 375.8 715 385.5 Q 713.8 391.3 709.5 394 Q 702.9 394.6 701 390.5 Q 695.2 384.8 697 371.5 L 700.5 367 L 702.5 366 Z M 700 375 L 698 377 L 698 381 L 701 388 L 706 392 L 710 392 L 713 388 Q 714 382 711 380 Q 709 374 700 375 Z " /><path fill="rgb(33,29,31)" stroke="rgb(33,29,31)" stroke-width="1" opacity="1" d="M 150.5 369 L 151 371.5 L 150 371.5 L 150.5 369 Z " /><path fill="rgb(33,29,31)" stroke="rgb(33,29,31)" stroke-width="1" opacity="1" d="M 149.5 383 L 150 392.5 L 149 392.5 L 149.5 383 Z " /><path fill="rgb(33,29,31)" stroke="rgb(33,29,31)" stroke-width="1" opacity="1" d="M 534.5 384 Q 545.3 382.7 549 388.5 Q 552.7 392.3 553 399.5 Q 551.8 406.3 547.5 410 Q 543.7 414.2 534.5 413 L 526 407.5 L 523 400.5 L 523 396.5 L 528.5 387 L 534.5 384 Z M 525 396 L 526 405 Q 529 411 538 412 L 545 410 L 548 406 L 539 397 L 525 396 Z " /><path fill="rgb(33,29,31)" stroke="rgb(33,29,31)" stroke-width="1" opacity="1" d="M 149.5 405 L 150 414.5 L 149 414.5 L 149.5 405 Z " /><path fill="rgb(33,29,31)" stroke="rgb(33,29,31)" stroke-width="1" opacity="1" d="M 150.5 427 L 151 430.5 L 150 430.5 L 150.5 427 Z " /><path fill="rgb(33,29,31)" stroke="rgb(33,29,31)" stroke-width="1" opacity="1" d="M 151.5 438 L 152 441.5 L 151 441.5 L 151.5 438 Z " /><path fill="rgb(33,29,31)" stroke="rgb(33,29,31)" stroke-width="1" opacity="1" d="M 153.5 455 L 154 457.5 L 153 457.5 L 153.5 455 Z " /><path fill="rgb(33,29,31)" stroke="rgb(33,29,31)" stroke-width="1" opacity="1" d="M 819.5 464 L 821.5 467 L 819.5 464 Z " /><path fill="rgb(33,29,31)" stroke="rgb(33,29,31)" stroke-width="1" opacity="1" d="M 825.5 469 L 832.5 477 L 825.5 469 Z " /><path fill="rgb(33,29,31)" stroke="rgb(33,29,31)" stroke-width="1" opacity="1" d="M 850.5 517 L 851 520.5 L 850 520.5 L 850.5 517 Z " /><path fill="rgb(33,29,31)" stroke="rgb(33,29,31)" stroke-width="1" opacity="1" d="M 850.5 527 L 851 530.5 L 850 530.5 L 850.5 527 Z " /><path fill="rgb(33,29,31)" stroke="rgb(33,29,31)" stroke-width="1" opacity="1" d="M 822.5 596 L 821.5 598 L 822.5 596 Z " /><path fill="rgb(33,29,31)" stroke="rgb(33,29,31)" stroke-width="1" opacity="1" d="M 790.5 603 L 788.5 606 L 790.5 603 Z " /><path fill="rgb(33,29,31)" stroke="rgb(33,29,31)" stroke-width="1" opacity="1" d="M 813.5 608 L 812.5 610 L 813.5 608 Z " /><path fill="rgb(33,29,31)" stroke="rgb(33,29,31)" stroke-width="1" opacity="1" d="M 809.5 613 L 807.5 616 L 809.5 613 Z " /><path fill="rgb(33,29,31)" stroke="rgb(33,29,31)" stroke-width="1" opacity="1" d="M 756.5 715 L 756 716.5 Q 741.8 755.3 713.5 780 Q 698.3 791.8 679.5 800 L 641.5 813 L 613.5 819 L 593.5 821 L 592.5 822 L 569.5 823 L 568.5 824 L 539.5 824 L 538.5 823 L 527.5 823 L 526.5 822 L 514.5 821 L 488.5 813 Q 466.3 804.2 451.5 788 L 446.5 787 L 405.5 786 L 404 784.5 Q 435.1 771.1 458.5 750 Q 490.9 777.1 536.5 791 L 573.5 798 L 604.5 798 L 636.5 792 Q 662.2 784.2 683.5 772 Q 725 748.5 756.5 715 Z " /><path fill="rgb(33,29,31)" stroke="rgb(33,29,31)" stroke-width="1" opacity="1" d="M 230.5 754 L 232.5 757 L 230.5 754 Z " /><path fill="rgb(33,29,31)" stroke="rgb(33,29,31)" stroke-width="1" opacity="1" d="M 754.5 764 L 753.5 766 L 754.5 764 Z " /><path fill="rgb(33,29,31)" stroke="rgb(33,29,31)" stroke-width="1" opacity="1" d="M 241.5 765 L 242.5 767 L 241.5 765 Z " /><path fill="rgb(33,29,31)" stroke="rgb(33,29,31)" stroke-width="1" opacity="1" d="M 749.5 771 L 748.5 773 L 749.5 771 Z " /><path fill="rgb(33,29,31)" stroke="rgb(33,29,31)" stroke-width="1" opacity="1" d="M 746.5 775 L 745.5 777 L 746.5 775 Z " /><path fill="rgb(33,29,31)" stroke="rgb(33,29,31)" stroke-width="1" opacity="1" d="M 349.5 780 L 352 780.5 L 349.5 781 L 349.5 780 Z " /><path fill="rgb(33,29,31)" stroke="rgb(33,29,31)" stroke-width="1" opacity="1" d="M 741.5 781 L 737.5 786 L 741.5 781 Z " /><path fill="rgb(33,29,31)" stroke="rgb(33,29,31)" stroke-width="1" opacity="1" d="M 368.5 782 L 371 782.5 L 368.5 783 L 368.5 782 Z " /><path fill="rgb(33,29,31)" stroke="rgb(33,29,31)" stroke-width="1" opacity="1" d="M 379.5 783 L 382 783.5 L 379.5 784 L 379.5 783 Z " /><path fill="rgb(33,29,31)" stroke="rgb(33,29,31)" stroke-width="1" opacity="1" d="M 391.5 784 L 395 784.5 L 391.5 785 L 391.5 784 Z " /><path fill="rgb(33,29,31)" stroke="rgb(33,29,31)" stroke-width="1" opacity="1" d="M 732.5 790 L 729.5 794 L 732.5 790 Z " /><path fill="rgb(33,29,31)" stroke="rgb(33,29,31)" stroke-width="1" opacity="1" d="M 340.5 801 L 343 801.5 L 340.5 802 L 340.5 801 Z " /><path fill="rgb(33,29,31)" stroke="rgb(33,29,31)" stroke-width="1" opacity="1" d="M 358.5 803 L 361 803.5 L 358.5 804 L 358.5 803 Z " /><path fill="rgb(33,29,31)" stroke="rgb(33,29,31)" stroke-width="1" opacity="1" d="M 369.5 804 L 372 804.5 L 369.5 805 L 369.5 804 Z " /><path fill="rgb(33,29,31)" stroke="rgb(33,29,31)" stroke-width="1" opacity="1" d="M 380.5 805 L 383 805.5 L 380.5 806 L 380.5 805 Z " /><path fill="rgb(33,29,31)" stroke="rgb(33,29,31)" stroke-width="1" opacity="1" d="M 430.5 808 L 433 808.5 L 430.5 809 L 430.5 808 Z " /><path fill="rgb(33,29,31)" stroke="rgb(33,29,31)" stroke-width="1" opacity="1" d="M 575.5 844 L 579 844.5 L 575.5 845 L 575.5 844 Z " /><path fill="rgb(116,114,113)" stroke="rgb(116,114,113)" stroke-width="1" opacity="1" d="M 401.5 154 L 410 154.5 L 401.5 155 L 401.5 154 Z " /><path fill="rgb(116,114,113)" stroke="rgb(116,114,113)" stroke-width="1" opacity="1" d="M 424.5 154 L 435 154.5 L 424.5 155 L 424.5 154 Z " /><path fill="rgb(116,114,113)" stroke="rgb(116,114,113)" stroke-width="1" opacity="1" d="M 389.5 155 L 392 155.5 L 389.5 156 L 389.5 155 Z " /><path fill="rgb(116,114,113)" stroke="rgb(116,114,113)" stroke-width="1" opacity="1" d="M 445.5 155 L 449 155.5 L 445.5 156 L 445.5 155 Z " /><path fill="rgb(116,114,113)" stroke="rgb(116,114,113)" stroke-width="1" opacity="1" d="M 378.5 156 L 381 156.5 L 378.5 157 L 378.5 156 Z " /><path fill="rgb(116,114,113)" stroke="rgb(116,114,113)" stroke-width="1" opacity="1" d="M 456.5 156 L 460 156.5 L 456.5 157 L 456.5 156 Z " /><path fill="rgb(116,114,113)" stroke="rgb(116,114,113)" stroke-width="1" opacity="1" d="M 465.5 157 L 468 157.5 L 465.5 158 L 465.5 157 Z " /><path fill="rgb(116,114,113)" stroke="rgb(116,114,113)" stroke-width="1" opacity="1" d="M 452.5 180 L 461.5 180 L 462.5 181 L 481.5 183 L 511.5 190 L 537.5 199 L 575.5 215 Q 628.6 239.4 672.5 273 L 688.5 277 L 710.5 288 Q 729.1 299.9 743 316.5 L 756 338.5 L 759 349.5 L 758 349.5 Q 747 328.6 729.5 314 L 716.5 305 Q 709 300.5 698.5 299 L 686.5 292 Q 674.5 286.5 658.5 285 Q 605.5 241 535.5 214 L 521.5 209 L 511.5 207 L 508.5 205 L 467.5 196 L 452.5 195 L 451.5 194 L 441.5 194 L 440.5 193 L 407.5 193 L 406.5 194 L 396.5 194 L 385.5 196 L 385.5 195 L 414.5 187 L 452.5 180 Z " /><path fill="rgb(116,114,113)" stroke="rgb(116,114,113)" stroke-width="1" opacity="1" d="M 227.5 217 L 226.5 219 L 227.5 217 Z " /><path fill="rgb(116,114,113)" stroke="rgb(116,114,113)" stroke-width="1" opacity="1" d="M 220.5 223 L 216.5 228 L 220.5 223 Z " /><path fill="rgb(116,114,113)" stroke="rgb(116,114,113)" stroke-width="1" opacity="1" d="M 312.5 227 L 311.5 229 L 312.5 227 Z " /><path fill="rgb(116,114,113)" stroke="rgb(116,114,113)" stroke-width="1" opacity="1" d="M 304.5 232 L 303.5 234 L 304.5 232 Z " /><path fill="rgb(116,114,113)" stroke="rgb(116,114,113)" stroke-width="1" opacity="1" d="M 301.5 234 L 300.5 236 L 301.5 234 Z " /><path fill="rgb(116,114,113)" stroke="rgb(116,114,113)" stroke-width="1" opacity="1" d="M 204.5 239 L 203.5 241 L 204.5 239 Z " /><path fill="rgb(116,114,113)" stroke="rgb(116,114,113)" stroke-width="1" opacity="1" d="M 294.5 239 L 293.5 241 L 294.5 239 Z " /><path fill="rgb(116,114,113)" stroke="rgb(116,114,113)" stroke-width="1" opacity="1" d="M 290.5 242 L 289.5 244 L 290.5 242 Z " /><path fill="rgb(116,114,113)" stroke="rgb(116,114,113)" stroke-width="1" opacity="1" d="M 285.5 246 L 283.5 249 L 285.5 246 Z " /><path fill="rgb(116,114,113)" stroke="rgb(116,114,113)" stroke-width="1" opacity="1" d="M 279.5 251 L 274.5 257 L 279.5 251 Z " /><path fill="rgb(116,114,113)" stroke="rgb(116,114,113)" stroke-width="1" opacity="1" d="M 266.5 264 L 262.5 269 L 266.5 264 Z " /><path fill="rgb(116,114,113)" stroke="rgb(116,114,113)" stroke-width="1" opacity="1" d="M 258.5 273 L 257.5 275 L 258.5 273 Z " /><path fill="rgb(116,114,113)" stroke="rgb(116,114,113)" stroke-width="1" opacity="1" d="M 734.5 277 L 735.5 279 L 734.5 277 Z " /><path fill="rgb(116,114,113)" stroke="rgb(116,114,113)" stroke-width="1" opacity="1" d="M 254.5 278 L 253.5 280 L 254.5 278 Z " /><path fill="rgb(116,114,113)" stroke="rgb(116,114,113)" stroke-width="1" opacity="1" d="M 740.5 282 L 741.5 284 L 740.5 282 Z " /><path fill="rgb(116,114,113)" stroke="rgb(116,114,113)" stroke-width="1" opacity="1" d="M 249.5 285 L 248.5 287 L 249.5 285 Z " /><path fill="rgb(116,114,113)" stroke="rgb(116,114,113)" stroke-width="1" opacity="1" d="M 752.5 294 L 753.5 296 L 752.5 294 Z " /><path fill="rgb(116,114,113)" stroke="rgb(116,114,113)" stroke-width="1" opacity="1" d="M 691.5 297 L 694 297.5 L 691.5 298 L 691.5 297 Z " /><path fill="rgb(116,114,113)" stroke="rgb(116,114,113)" stroke-width="1" opacity="1" d="M 663.5 302 L 662.5 304 L 663.5 302 Z " /><path fill="rgb(116,114,113)" stroke="rgb(116,114,113)" stroke-width="1" opacity="1" d="M 507.5 309 L 510 309.5 L 507.5 310 L 507.5 309 Z " /><path fill="rgb(116,114,113)" stroke="rgb(116,114,113)" stroke-width="1" opacity="1" d="M 526.5 309 L 529 309.5 L 526.5 310 L 526.5 309 Z " /><path fill="rgb(116,114,113)" stroke="rgb(116,114,113)" stroke-width="1" opacity="1" d="M 570.5 322 L 571.5 324 L 570.5 322 Z " /><path fill="rgb(116,114,113)" stroke="rgb(116,114,113)" stroke-width="1" opacity="1" d="M 468.5 326 L 466.5 329 L 468.5 326 Z " /><path fill="rgb(116,114,113)" stroke="rgb(116,114,113)" stroke-width="1" opacity="1" d="M 576.5 326 L 577.5 328 L 576.5 326 Z " /><path fill="rgb(116,114,113)" stroke="rgb(116,114,113)" stroke-width="1" opacity="1" d="M 463.5 330 L 458.5 336 L 463.5 330 Z " /><path fill="rgb(116,114,113)" stroke="rgb(116,114,113)" stroke-width="1" opacity="1" d="M 581.5 330 L 588.5 338 L 581.5 330 Z " /><path fill="rgb(116,114,113)" stroke="rgb(116,114,113)" stroke-width="1" opacity="1" d="M 648.5 335 L 649 342.5 L 648 342.5 L 648.5 335 Z " /><path fill="rgb(116,114,113)" stroke="rgb(116,114,113)" stroke-width="1" opacity="1" d="M 631.5 336 L 633 338.5 L 632 338.5 L 631.5 336 Z " /><path fill="rgb(116,114,113)" stroke="rgb(116,114,113)" stroke-width="1" opacity="1" d="M 695.5 336 L 704.5 346 L 695.5 336 Z " /><path fill="rgb(116,114,113)" stroke="rgb(116,114,113)" stroke-width="1" opacity="1" d="M 456.5 337 L 449.5 345 L 456.5 337 Z " /><path fill="rgb(116,114,113)" stroke="rgb(116,114,113)" stroke-width="1" opacity="1" d="M 675.5 337 L 674.5 339 L 675.5 337 Z " /><path fill="rgb(116,114,113)" stroke="rgb(116,114,113)" stroke-width="1" opacity="1" d="M 672.5 339 L 671.5 341 L 672.5 339 Z " /><path fill="rgb(116,114,113)" stroke="rgb(116,114,113)" stroke-width="1" opacity="1" d="M 591.5 341 L 592.5 343 L 591.5 341 Z " /><path fill="rgb(116,114,113)" stroke="rgb(116,114,113)" stroke-width="1" opacity="1" d="M 685.5 341 L 692 341.5 L 685.5 342 L 685.5 341 Z " /><path fill="rgb(116,114,113)" stroke="rgb(116,114,113)" stroke-width="1" opacity="1" d="M 669.5 343 L 668.5 345 L 669.5 343 Z " /><path fill="rgb(116,114,113)" stroke="rgb(116,114,113)" stroke-width="1" opacity="1" d="M 680.5 343 L 679.5 345 L 680.5 343 Z " /><path fill="rgb(116,114,113)" stroke="rgb(116,114,113)" stroke-width="1" opacity="1" d="M 697.5 343 L 701 345.5 L 699.5 345 L 697.5 343 Z " /><path fill="rgb(116,114,113)" stroke="rgb(116,114,113)" stroke-width="1" opacity="1" d="M 593.5 344 L 594.5 346 L 593.5 344 Z " /><path fill="rgb(116,114,113)" stroke="rgb(116,114,113)" stroke-width="1" opacity="1" d="M 703.5 347 L 709 350.5 L 708.5 353 L 703.5 347 Z " /><path fill="rgb(116,114,113)" stroke="rgb(116,114,113)" stroke-width="1" opacity="1" d="M 446.5 348 L 444.5 351 L 446.5 348 Z " /><path fill="rgb(116,114,113)" stroke="rgb(116,114,113)" stroke-width="1" opacity="1" d="M 675.5 348 L 674.5 350 L 675.5 348 Z " /><path fill="rgb(116,114,113)" stroke="rgb(116,114,113)" stroke-width="1" opacity="1" d="M 682.5 348 L 680.5 351 L 682.5 348 Z " /><path fill="rgb(116,114,113)" stroke="rgb(116,114,113)" stroke-width="1" opacity="1" d="M 694.5 348 L 697 349.5 L 695.5 349 L 694.5 348 Z " /><path fill="rgb(116,114,113)" stroke="rgb(116,114,113)" stroke-width="1" opacity="1" d="M 524.5 349 L 529 349.5 L 524.5 350 L 524.5 349 Z " /><path fill="rgb(116,114,113)" stroke="rgb(116,114,113)" stroke-width="1" opacity="1" d="M 532.5 349 L 541 349.5 L 532.5 350 L 532.5 349 Z " /><path fill="rgb(116,114,113)" stroke="rgb(116,114,113)" stroke-width="1" opacity="1" d="M 545.5 350 L 548 350.5 L 545.5 351 L 545.5 350 Z " /><path fill="rgb(116,114,113)" stroke="rgb(116,114,113)" stroke-width="1" opacity="1" d="M 698.5 350 L 705.5 358 L 698.5 350 Z " /><path fill="rgb(116,114,113)" stroke="rgb(116,114,113)" stroke-width="1" opacity="1" d="M 550.5 351 L 553 351.5 L 550.5 352 L 550.5 351 Z " /><path fill="rgb(116,114,113)" stroke="rgb(116,114,113)" stroke-width="1" opacity="1" d="M 665.5 352 L 666 354.5 L 665 354.5 L 665.5 352 Z " /><path fill="rgb(116,114,113)" stroke="rgb(116,114,113)" stroke-width="1" opacity="1" d="M 679.5 352 L 679 353.5 L 678.5 355 L 678 353.5 L 679.5 352 Z " /><path fill="rgb(116,114,113)" stroke="rgb(116,114,113)" stroke-width="1" opacity="1" d="M 442.5 353 L 441.5 355 L 442.5 353 Z " /><path fill="rgb(116,114,113)" stroke="rgb(116,114,113)" stroke-width="1" opacity="1" d="M 710.5 353 Q 715 355 711.5 357 L 710 355.5 L 710.5 353 Z " /><path fill="rgb(116,114,113)" stroke="rgb(116,114,113)" stroke-width="1" opacity="1" d="M 511.5 354 L 509.5 357 L 511.5 354 Z " /><path fill="rgb(116,114,113)" stroke="rgb(116,114,113)" stroke-width="1" opacity="1" d="M 671.5 356 L 672 358.5 L 671 358.5 L 671.5 356 Z " /><path fill="rgb(116,114,113)" stroke="rgb(116,114,113)" stroke-width="1" opacity="1" d="M 713.5 357 L 715.5 360 L 712 358.5 L 713.5 357 Z " /><path fill="rgb(116,114,113)" stroke="rgb(116,114,113)" stroke-width="1" opacity="1" d="M 506.5 358 L 502.5 363 L 506.5 358 Z " /><path fill="rgb(116,114,113)" stroke="rgb(116,114,113)" stroke-width="1" opacity="1" d="M 532.5 358 L 535 358.5 L 532.5 359 L 532.5 358 Z " /><path fill="rgb(116,114,113)" stroke="rgb(116,114,113)" stroke-width="1" opacity="1" d="M 546.5 358 L 550 358.5 L 546.5 359 L 546.5 358 Z " /><path fill="rgb(116,114,113)" stroke="rgb(116,114,113)" stroke-width="1" opacity="1" d="M 664.5 360 L 665 362.5 L 664 362.5 L 664.5 360 Z " /><path fill="rgb(116,114,113)" stroke="rgb(116,114,113)" stroke-width="1" opacity="1" d="M 707.5 360 L 708.5 362 L 707.5 360 Z " /><path fill="rgb(116,114,113)" stroke="rgb(116,114,113)" stroke-width="1" opacity="1" d="M 670.5 361 L 671 366.5 L 670 366.5 L 670.5 361 Z " /><path fill="rgb(116,114,113)" stroke="rgb(116,114,113)" stroke-width="1" opacity="1" d="M 714.5 361 L 716.5 361 L 719 363.5 L 716 362.5 L 718 367.5 L 717 367.5 L 714.5 361 Z " /><path fill="rgb(116,114,113)" stroke="rgb(116,114,113)" stroke-width="1" opacity="1" d="M 535.5 363 L 547 363.5 L 535.5 364 L 535.5 363 Z " /><path fill="rgb(116,114,113)" stroke="rgb(116,114,113)" stroke-width="1" opacity="1" d="M 516.5 364 L 515.5 366 L 516.5 364 Z " /><path fill="rgb(116,114,113)" stroke="rgb(116,114,113)" stroke-width="1" opacity="1" d="M 500.5 365 L 499.5 367 L 500.5 365 Z " /><path fill="rgb(116,114,113)" stroke="rgb(116,114,113)" stroke-width="1" opacity="1" d="M 566.5 365 L 567.5 367 L 566.5 365 Z " /><path fill="rgb(116,114,113)" stroke="rgb(116,114,113)" stroke-width="1" opacity="1" d="M 719.5 365 L 721.5 368 L 719.5 365 Z " /><path fill="rgb(116,114,113)" stroke="rgb(116,114,113)" stroke-width="1" opacity="1" d="M 513.5 366 L 511.5 369 L 513.5 366 Z " /><path fill="rgb(116,114,113)" stroke="rgb(116,114,113)" stroke-width="1" opacity="1" d="M 675.5 366 L 676 370.5 L 675 370.5 L 675.5 366 Z " /><path fill="rgb(116,114,113)" stroke="rgb(116,114,113)" stroke-width="1" opacity="1" d="M 705.5 366 L 708 367.5 L 706.5 367 L 705.5 366 Z " /><path fill="rgb(116,114,113)" stroke="rgb(116,114,113)" stroke-width="1" opacity="1" d="M 221.5 367 L 222 372.5 L 221 372.5 L 221.5 367 Z " /><path fill="rgb(116,114,113)" stroke="rgb(116,114,113)" stroke-width="1" opacity="1" d="M 699.5 367 L 698.5 369 L 699.5 367 Z " /><path fill="rgb(116,114,113)" stroke="rgb(116,114,113)" stroke-width="1" opacity="1" d="M 498.5 368 L 497.5 370 L 498.5 368 Z " /><path fill="rgb(116,114,113)" stroke="rgb(116,114,113)" stroke-width="1" opacity="1" d="M 520.5 368 L 519.5 370 L 520.5 368 Z " /><path fill="rgb(116,114,113)" stroke="rgb(116,114,113)" stroke-width="1" opacity="1" d="M 570.5 368 L 576.5 375 L 570.5 368 Z " /><path fill="rgb(116,114,113)" stroke="rgb(116,114,113)" stroke-width="1" opacity="1" d="M 665.5 368 L 666 370.5 L 665 370.5 L 665.5 368 Z " /><path fill="rgb(116,114,113)" stroke="rgb(116,114,113)" stroke-width="1" opacity="1" d="M 562.5 369 L 563.5 371 L 562.5 369 Z " /><path fill="rgb(116,114,113)" stroke="rgb(116,114,113)" stroke-width="1" opacity="1" d="M 722.5 369 L 723.5 371 L 722.5 369 Z " /><path fill="rgb(116,114,113)" stroke="rgb(116,114,113)" stroke-width="1" opacity="1" d="M 517.5 370 L 516.5 372 L 517.5 370 Z " /><path fill="rgb(116,114,113)" stroke="rgb(116,114,113)" stroke-width="1" opacity="1" d="M 600.5 370 L 601.5 372 L 600.5 370 Z " /><path fill="rgb(116,114,113)" stroke="rgb(116,114,113)" stroke-width="1" opacity="1" d="M 565.5 371 L 573.5 380 L 565.5 371 Z " /><path fill="rgb(116,114,113)" stroke="rgb(116,114,113)" stroke-width="1" opacity="1" d="M 670.5 371 L 671 375.5 L 670 375.5 L 670.5 371 Z " /><path fill="rgb(116,114,113)" stroke="rgb(116,114,113)" stroke-width="1" opacity="1" d="M 696.5 372 L 697 380.5 L 696 380.5 L 696.5 372 Z " /><path fill="rgb(116,114,113)" stroke="rgb(116,114,113)" stroke-width="1" opacity="1" d="M 513.5 373 L 510.5 377 L 513.5 373 Z " /><path fill="rgb(116,114,113)" stroke="rgb(116,114,113)" stroke-width="1" opacity="1" d="M 714.5 373 L 715 374.5 L 713 375.5 L 714.5 373 Z " /><path fill="rgb(116,114,113)" stroke="rgb(116,114,113)" stroke-width="1" opacity="1" d="M 725.5 373 L 726.5 375 L 725.5 373 Z " /><path fill="rgb(116,114,113)" stroke="rgb(116,114,113)" stroke-width="1" opacity="1" d="M 494.5 374 L 494 375.5 L 492.5 378 L 493 376.5 L 494.5 374 Z " /><path fill="rgb(116,114,113)" stroke="rgb(116,114,113)" stroke-width="1" opacity="1" d="M 505.5 374 L 503.5 377 L 505.5 374 Z " /><path fill="rgb(116,114,113)" stroke="rgb(116,114,113)" stroke-width="1" opacity="1" d="M 699.5 375 L 699 376.5 L 698.5 381 L 698 376.5 L 699.5 375 Z " /><path fill="rgb(116,114,113)" stroke="rgb(116,114,113)" stroke-width="1" opacity="1" d="M 676.5 376 L 677 378.5 L 676 378.5 L 676.5 376 Z " /><path fill="rgb(116,114,113)" stroke="rgb(116,114,113)" stroke-width="1" opacity="1" d="M 707.5 376 L 710.5 380 L 707.5 376 Z " /><path fill="rgb(116,114,113)" stroke="rgb(116,114,113)" stroke-width="1" opacity="1" d="M 727.5 376 L 728.5 378 L 727.5 376 Z " /><path fill="rgb(116,114,113)" stroke="rgb(116,114,113)" stroke-width="1" opacity="1" d="M 578.5 377 L 579.5 379 L 578.5 377 Z " /><path fill="rgb(116,114,113)" stroke="rgb(116,114,113)" stroke-width="1" opacity="1" d="M 149.5 378 L 150 382.5 L 149 382.5 L 149.5 378 Z " /><path fill="rgb(116,114,113)" stroke="rgb(116,114,113)" stroke-width="1" opacity="1" d="M 502.5 378 L 501.5 380 L 502.5 378 Z " /><path fill="rgb(116,114,113)" stroke="rgb(116,114,113)" stroke-width="1" opacity="1" d="M 714.5 378 L 715 380.5 L 714 380.5 L 714.5 378 Z " /><path fill="rgb(116,114,113)" stroke="rgb(116,114,113)" stroke-width="1" opacity="1" d="M 508.5 379 L 507.5 381 L 508.5 379 Z " /><path fill="rgb(116,114,113)" stroke="rgb(116,114,113)" stroke-width="1" opacity="1" d="M 729.5 379 L 730.5 381 L 729.5 379 Z " /><path fill="rgb(116,114,113)" stroke="rgb(116,114,113)" stroke-width="1" opacity="1" d="M 574.5 381 L 575.5 383 L 574.5 381 Z " /><path fill="rgb(116,114,113)" stroke="rgb(116,114,113)" stroke-width="1" opacity="1" d="M 731.5 382 L 732.5 384 L 731.5 382 Z " /><path fill="rgb(116,114,113)" stroke="rgb(116,114,113)" stroke-width="1" opacity="1" d="M 536.5 383 L 540 383.5 L 536.5 384 L 536.5 383 Z " /><path fill="rgb(116,114,113)" stroke="rgb(116,114,113)" stroke-width="1" opacity="1" d="M 530.5 385 L 529.5 387 L 530.5 385 Z " /><path fill="rgb(116,114,113)" stroke="rgb(116,114,113)" stroke-width="1" opacity="1" d="M 545.5 385 L 546.5 387 L 545.5 385 Z " /><path fill="rgb(116,114,113)" stroke="rgb(116,114,113)" stroke-width="1" opacity="1" d="M 712.5 385 L 713 387.5 L 712 387.5 L 712.5 385 Z " /><path fill="rgb(116,114,113)" stroke="rgb(116,114,113)" stroke-width="1" opacity="1" d="M 723.5 385 L 724 387.5 L 723 387.5 L 723.5 385 Z " /><path fill="rgb(116,114,113)" stroke="rgb(116,114,113)" stroke-width="1" opacity="1" d="M 734.5 386 L 735.5 388 L 734.5 386 Z " /><path fill="rgb(116,114,113)" stroke="rgb(116,114,113)" stroke-width="1" opacity="1" d="M 699.5 388 L 700.5 390 L 699.5 388 Z " /><path fill="rgb(116,114,113)" stroke="rgb(116,114,113)" stroke-width="1" opacity="1" d="M 718.5 388 L 719 391.5 L 718 391.5 L 718.5 388 Z " /><path fill="rgb(116,114,113)" stroke="rgb(116,114,113)" stroke-width="1" opacity="1" d="M 549.5 389 L 550.5 391 L 549.5 389 Z " /><path fill="rgb(116,114,113)" stroke="rgb(116,114,113)" stroke-width="1" opacity="1" d="M 711.5 389 L 709.5 392 L 711.5 389 Z " /><path fill="rgb(116,114,113)" stroke="rgb(116,114,113)" stroke-width="1" opacity="1" d="M 713.5 389 L 714 390.5 L 710 393.5 L 713.5 389 Z " /><path fill="rgb(116,114,113)" stroke="rgb(116,114,113)" stroke-width="1" opacity="1" d="M 736.5 389 L 737.5 391 L 736.5 389 Z " /><path fill="rgb(116,114,113)" stroke="rgb(116,114,113)" stroke-width="1" opacity="1" d="M 724.5 391 L 725 401.5 L 724 401.5 L 724.5 391 Z " /><path fill="rgb(116,114,113)" stroke="rgb(116,114,113)" stroke-width="1" opacity="1" d="M 703.5 392 L 706 393.5 L 704.5 394 L 703.5 392 Z " /><path fill="rgb(116,114,113)" stroke="rgb(116,114,113)" stroke-width="1" opacity="1" d="M 738.5 392 L 739.5 394 L 738.5 392 Z " /><path fill="rgb(116,114,113)" stroke="rgb(116,114,113)" stroke-width="1" opacity="1" d="M 495.5 393 L 496 395.5 L 495 395.5 L 495.5 393 Z " /><path fill="rgb(116,114,113)" stroke="rgb(116,114,113)" stroke-width="1" opacity="1" d="M 552.5 394 L 553 396.5 L 552 396.5 L 552.5 394 Z " /><path fill="rgb(116,114,113)" stroke="rgb(116,114,113)" stroke-width="1" opacity="1" d="M 740.5 395 L 741.5 397 L 740.5 395 Z " /><path fill="rgb(116,114,113)" stroke="rgb(116,114,113)" stroke-width="1" opacity="1" d="M 500.5 396 L 501 398.5 L 500 398.5 L 500.5 396 Z " /><path fill="rgb(116,114,113)" stroke="rgb(116,114,113)" stroke-width="1" opacity="1" d="M 586.5 396 L 587 398.5 L 586 398.5 L 586.5 396 Z " /><path fill="rgb(116,114,113)" stroke="rgb(116,114,113)" stroke-width="1" opacity="1" d="M 540.5 398 L 541.5 400 L 540.5 398 Z " /><path fill="rgb(116,114,113)" stroke="rgb(116,114,113)" stroke-width="1" opacity="1" d="M 677.5 398 L 680 402.5 L 678 401.5 L 677.5 398 Z " /><path fill="rgb(116,114,113)" stroke="rgb(116,114,113)" stroke-width="1" opacity="1" d="M 742.5 398 L 743.5 400 L 742.5 398 Z " /><path fill="rgb(116,114,113)" stroke="rgb(116,114,113)" stroke-width="1" opacity="1" d="M 494.5 399 L 495 408.5 L 494 408.5 L 494.5 399 Z " /><path fill="rgb(116,114,113)" stroke="rgb(116,114,113)" stroke-width="1" opacity="1" d="M 581.5 399 L 582 408.5 L 581 408.5 L 581.5 399 Z " /><path fill="rgb(116,114,113)" stroke="rgb(116,114,113)" stroke-width="1" opacity="1" d="M 221.5 400 L 222 408.5 L 221 408.5 L 221.5 400 Z " /><path fill="rgb(116,114,113)" stroke="rgb(116,114,113)" stroke-width="1" opacity="1" d="M 552.5 400 L 553 402.5 L 552 402.5 L 552.5 400 Z " /><path fill="rgb(116,114,113)" stroke="rgb(116,114,113)" stroke-width="1" opacity="1" d="M 685.5 402 L 686.5 404 L 685.5 402 Z " /><path fill="rgb(116,114,113)" stroke="rgb(116,114,113)" stroke-width="1" opacity="1" d="M 718.5 402 L 719 404.5 L 718 404.5 L 718.5 402 Z " /><path fill="rgb(116,114,113)" stroke="rgb(116,114,113)" stroke-width="1" opacity="1" d="M 526.5 404 L 527.5 406 L 526.5 404 Z " /><path fill="rgb(116,114,113)" stroke="rgb(116,114,113)" stroke-width="1" opacity="1" d="M 546.5 404 L 547.5 406 L 546.5 404 Z " /><path fill="rgb(116,114,113)" stroke="rgb(116,114,113)" stroke-width="1" opacity="1" d="M 687.5 405 L 688.5 407 L 687.5 405 Z " /><path fill="rgb(116,114,113)" stroke="rgb(116,114,113)" stroke-width="1" opacity="1" d="M 723.5 405 L 724 407.5 L 723 407.5 L 723.5 405 Z " /><path fill="rgb(116,114,113)" stroke="rgb(116,114,113)" stroke-width="1" opacity="1" d="M 550.5 406 L 549.5 408 L 550.5 406 Z " /><path fill="rgb(116,114,113)" stroke="rgb(116,114,113)" stroke-width="1" opacity="1" d="M 681.5 406 L 682.5 408 L 681.5 406 Z " /><path fill="rgb(116,114,113)" stroke="rgb(116,114,113)" stroke-width="1" opacity="1" d="M 545.5 408 L 544.5 410 L 545.5 408 Z " /><path fill="rgb(116,114,113)" stroke="rgb(116,114,113)" stroke-width="1" opacity="1" d="M 654.5 408 L 655 410.5 L 654 410.5 L 654.5 408 Z " /><path fill="rgb(116,114,113)" stroke="rgb(116,114,113)" stroke-width="1" opacity="1" d="M 792.5 408 L 793 410.5 L 792 410.5 L 792.5 408 Z " /><path fill="rgb(116,114,113)" stroke="rgb(116,114,113)" stroke-width="1" opacity="1" d="M 500.5 409 L 501 411.5 L 500 411.5 L 500.5 409 Z " /><path fill="rgb(116,114,113)" stroke="rgb(116,114,113)" stroke-width="1" opacity="1" d="M 586.5 409 L 587 412.5 L 586 412.5 L 586.5 409 Z " /><path fill="rgb(116,114,113)" stroke="rgb(116,114,113)" stroke-width="1" opacity="1" d="M 683.5 409 L 685.5 412 L 683.5 409 Z " /><path fill="rgb(116,114,113)" stroke="rgb(116,114,113)" stroke-width="1" opacity="1" d="M 690.5 409 L 694.5 414 L 690.5 409 Z " /><path fill="rgb(116,114,113)" stroke="rgb(116,114,113)" stroke-width="1" opacity="1" d="M 529.5 410 L 530.5 412 L 529.5 410 Z " /><path fill="rgb(116,114,113)" stroke="rgb(116,114,113)" stroke-width="1" opacity="1" d="M 546.5 410 L 545.5 412 L 546.5 410 Z " /><path fill="rgb(116,114,113)" stroke="rgb(116,114,113)" stroke-width="1" opacity="1" d="M 580.5 412 L 581 414.5 L 580 414.5 L 580.5 412 Z " /><path fill="rgb(116,114,113)" stroke="rgb(116,114,113)" stroke-width="1" opacity="1" d="M 721.5 412 L 722 413.5 L 720 414.5 L 721.5 412 Z " /><path fill="rgb(116,114,113)" stroke="rgb(116,114,113)" stroke-width="1" opacity="1" d="M 536.5 413 L 540 413.5 L 536.5 414 L 536.5 413 Z " /><path fill="rgb(116,114,113)" stroke="rgb(116,114,113)" stroke-width="1" opacity="1" d="M 714.5 414 L 712.5 417 L 714.5 414 Z " /><path fill="rgb(116,114,113)" stroke="rgb(116,114,113)" stroke-width="1" opacity="1" d="M 149.5 415 L 150 420.5 L 149 420.5 L 149.5 415 Z " /><path fill="rgb(116,114,113)" stroke="rgb(116,114,113)" stroke-width="1" opacity="1" d="M 699.5 416 L 702 417.5 L 700.5 418 L 699.5 416 Z " /><path fill="rgb(116,114,113)" stroke="rgb(116,114,113)" stroke-width="1" opacity="1" d="M 656.5 417 L 657 419.5 L 656 419.5 L 656.5 417 Z " /><path fill="rgb(116,114,113)" stroke="rgb(116,114,113)" stroke-width="1" opacity="1" d="M 692.5 418 L 693.5 420 L 692.5 418 Z " /><path fill="rgb(116,114,113)" stroke="rgb(116,114,113)" stroke-width="1" opacity="1" d="M 703.5 418 L 709 418.5 L 703.5 419 L 703.5 418 Z " /><path fill="rgb(116,114,113)" stroke="rgb(116,114,113)" stroke-width="1" opacity="1" d="M 659.5 419 L 660 421.5 L 659 421.5 L 659.5 419 Z " /><path fill="rgb(116,114,113)" stroke="rgb(116,114,113)" stroke-width="1" opacity="1" d="M 756.5 419 L 757.5 421 L 756.5 419 Z " /><path fill="rgb(116,114,113)" stroke="rgb(116,114,113)" stroke-width="1" opacity="1" d="M 503.5 420 L 506 424.5 L 504 423.5 L 503.5 420 Z " /><path fill="rgb(116,114,113)" stroke="rgb(116,114,113)" stroke-width="1" opacity="1" d="M 695.5 420 L 696.5 422 L 695.5 420 Z " /><path fill="rgb(116,114,113)" stroke="rgb(116,114,113)" stroke-width="1" opacity="1" d="M 222.5 421 L 223 424.5 L 222 424.5 L 222.5 421 Z " /><path fill="rgb(116,114,113)" stroke="rgb(116,114,113)" stroke-width="1" opacity="1" d="M 714.5 421 L 713.5 423 L 712 422.5 L 714.5 421 Z " /><path fill="rgb(116,114,113)" stroke="rgb(116,114,113)" stroke-width="1" opacity="1" d="M 657.5 422 L 658 424.5 L 657 424.5 L 657.5 422 Z " /><path fill="rgb(116,114,113)" stroke="rgb(116,114,113)" stroke-width="1" opacity="1" d="M 758.5 422 L 759.5 424 L 758.5 422 Z " /><path fill="rgb(116,114,113)" stroke="rgb(116,114,113)" stroke-width="1" opacity="1" d="M 582.5 424 L 582 425.5 L 580.5 428 L 581 426.5 L 582.5 424 Z " /><path fill="rgb(116,114,113)" stroke="rgb(116,114,113)" stroke-width="1" opacity="1" d="M 760.5 425 L 761.5 427 L 760.5 425 Z " /><path fill="rgb(116,114,113)" stroke="rgb(116,114,113)" stroke-width="1" opacity="1" d="M 506.5 426 L 507.5 428 L 506.5 426 Z " /><path fill="rgb(116,114,113)" stroke="rgb(116,114,113)" stroke-width="1" opacity="1" d="M 500.5 427 L 501.5 429 L 500.5 427 Z " /><path fill="rgb(116,114,113)" stroke="rgb(116,114,113)" stroke-width="1" opacity="1" d="M 574.5 427 L 572.5 430 L 574.5 427 Z " /><path fill="rgb(116,114,113)" stroke="rgb(116,114,113)" stroke-width="1" opacity="1" d="M 762.5 428 L 763.5 430 L 762.5 428 Z " /><path fill="rgb(116,114,113)" stroke="rgb(116,114,113)" stroke-width="1" opacity="1" d="M 508.5 429 L 515.5 437 L 508.5 429 Z " /><path fill="rgb(116,114,113)" stroke="rgb(116,114,113)" stroke-width="1" opacity="1" d="M 579.5 429 L 578.5 431 L 579.5 429 Z " /><path fill="rgb(116,114,113)" stroke="rgb(116,114,113)" stroke-width="1" opacity="1" d="M 502.5 430 L 503.5 432 L 502.5 430 Z " /><path fill="rgb(116,114,113)" stroke="rgb(116,114,113)" stroke-width="1" opacity="1" d="M 150.5 431 L 151 433.5 L 150 433.5 L 150.5 431 Z " /><path fill="rgb(116,114,113)" stroke="rgb(116,114,113)" stroke-width="1" opacity="1" d="M 764.5 431 L 765.5 433 L 764.5 431 Z " /><path fill="rgb(116,114,113)" stroke="rgb(116,114,113)" stroke-width="1" opacity="1" d="M 466.5 432 L 465.5 434 L 466.5 432 Z " /><path fill="rgb(116,114,113)" stroke="rgb(116,114,113)" stroke-width="1" opacity="1" d="M 577.5 432 L 573.5 437 L 577.5 432 Z " /><path fill="rgb(116,114,113)" stroke="rgb(116,114,113)" stroke-width="1" opacity="1" d="M 662.5 432 L 663 434.5 L 662 434.5 L 662.5 432 Z " /><path fill="rgb(116,114,113)" stroke="rgb(116,114,113)" stroke-width="1" opacity="1" d="M 223.5 434 L 224 436.5 L 223 436.5 L 223.5 434 Z " /><path fill="rgb(116,114,113)" stroke="rgb(116,114,113)" stroke-width="1" opacity="1" d="M 505.5 434 L 510.5 440 L 505.5 434 Z " /><path fill="rgb(116,114,113)" stroke="rgb(116,114,113)" stroke-width="1" opacity="1" d="M 766.5 434 L 767.5 436 L 766.5 434 Z " /><path fill="rgb(116,114,113)" stroke="rgb(116,114,113)" stroke-width="1" opacity="1" d="M 566.5 435 L 564.5 438 L 566.5 435 Z " /><path fill="rgb(116,114,113)" stroke="rgb(116,114,113)" stroke-width="1" opacity="1" d="M 463.5 437 L 462.5 439 L 463.5 437 Z " /><path fill="rgb(116,114,113)" stroke="rgb(116,114,113)" stroke-width="1" opacity="1" d="M 517.5 437 L 518.5 439 L 517.5 437 Z " /><path fill="rgb(116,114,113)" stroke="rgb(116,114,113)" stroke-width="1" opacity="1" d="M 768.5 437 L 769.5 439 L 768.5 437 Z " /><path fill="rgb(116,114,113)" stroke="rgb(116,114,113)" stroke-width="1" opacity="1" d="M 562.5 438 L 561.5 440 L 562.5 438 Z " /><path fill="rgb(116,114,113)" stroke="rgb(116,114,113)" stroke-width="1" opacity="1" d="M 571.5 438 L 568.5 442 L 571.5 438 Z " /><path fill="rgb(116,114,113)" stroke="rgb(116,114,113)" stroke-width="1" opacity="1" d="M 513.5 441 L 514.5 443 L 513.5 441 Z " /><path fill="rgb(116,114,113)" stroke="rgb(116,114,113)" stroke-width="1" opacity="1" d="M 661.5 441 L 662 443.5 L 661 443.5 L 661.5 441 Z " /><path fill="rgb(116,114,113)" stroke="rgb(116,114,113)" stroke-width="1" opacity="1" d="M 460.5 442 L 459.5 444 L 460.5 442 Z " /><path fill="rgb(116,114,113)" stroke="rgb(116,114,113)" stroke-width="1" opacity="1" d="M 566.5 442 L 565.5 444 L 566.5 442 Z " /><path fill="rgb(116,114,113)" stroke="rgb(116,114,113)" stroke-width="1" opacity="1" d="M 771.5 442 L 772.5 444 L 771.5 442 Z " /><path fill="rgb(116,114,113)" stroke="rgb(116,114,113)" stroke-width="1" opacity="1" d="M 516.5 443 L 520 445.5 L 518.5 445 L 516.5 443 Z " /><path fill="rgb(116,114,113)" stroke="rgb(116,114,113)" stroke-width="1" opacity="1" d="M 681.5 443 L 687 453.5 L 685 452.5 L 681 444.5 L 681.5 443 Z " /><path fill="rgb(116,114,113)" stroke="rgb(116,114,113)" stroke-width="1" opacity="1" d="M 224.5 444 L 225 446.5 L 224 446.5 L 224.5 444 Z " /><path fill="rgb(116,114,113)" stroke="rgb(116,114,113)" stroke-width="1" opacity="1" d="M 533.5 444 L 536 444.5 L 533.5 445 L 533.5 444 Z " /><path fill="rgb(116,114,113)" stroke="rgb(116,114,113)" stroke-width="1" opacity="1" d="M 545.5 444 L 549 444.5 L 545.5 445 L 545.5 444 Z " /><path fill="rgb(116,114,113)" stroke="rgb(116,114,113)" stroke-width="1" opacity="1" d="M 773.5 445 L 774.5 447 L 773.5 445 Z " /><path fill="rgb(116,114,113)" stroke="rgb(116,114,113)" stroke-width="1" opacity="1" d="M 457.5 447 L 457 448.5 L 455.5 451 L 456 449.5 L 457.5 447 Z " /><path fill="rgb(116,114,113)" stroke="rgb(116,114,113)" stroke-width="1" opacity="1" d="M 530.5 449 L 533 449.5 L 530.5 450 L 530.5 449 Z " /><path fill="rgb(116,114,113)" stroke="rgb(116,114,113)" stroke-width="1" opacity="1" d="M 777.5 449 L 778.5 451 L 777.5 449 Z " /><path fill="rgb(116,114,113)" stroke="rgb(116,114,113)" stroke-width="1" opacity="1" d="M 536.5 450 L 545 450.5 L 536.5 451 L 536.5 450 Z " /><path fill="rgb(116,114,113)" stroke="rgb(116,114,113)" stroke-width="1" opacity="1" d="M 663.5 450 L 664 452.5 L 663 452.5 L 663.5 450 Z " /><path fill="rgb(116,114,113)" stroke="rgb(116,114,113)" stroke-width="1" opacity="1" d="M 780.5 451 L 781.5 453 L 780.5 451 Z " /><path fill="rgb(116,114,113)" stroke="rgb(116,114,113)" stroke-width="1" opacity="1" d="M 225.5 452 L 226 454.5 L 225 454.5 L 225.5 452 Z " /><path fill="rgb(116,114,113)" stroke="rgb(116,114,113)" stroke-width="1" opacity="1" d="M 667.5 453 L 668 455.5 L 667 455.5 L 667.5 453 Z " /><path fill="rgb(116,114,113)" stroke="rgb(116,114,113)" stroke-width="1" opacity="1" d="M 453.5 454 L 452.5 456 L 453.5 454 Z " /><path fill="rgb(116,114,113)" stroke="rgb(116,114,113)" stroke-width="1" opacity="1" d="M 784.5 454 L 791.5 462 L 784.5 454 Z " /><path fill="rgb(116,114,113)" stroke="rgb(116,114,113)" stroke-width="1" opacity="1" d="M 814.5 455 L 815.5 457 L 814.5 455 Z " /><path fill="rgb(116,114,113)" stroke="rgb(116,114,113)" stroke-width="1" opacity="1" d="M 665.5 459 L 666 461.5 L 665 461.5 L 665.5 459 Z " /><path fill="rgb(116,114,113)" stroke="rgb(116,114,113)" stroke-width="1" opacity="1" d="M 449.5 461 L 448.5 463 L 449.5 461 Z " /><path fill="rgb(116,114,113)" stroke="rgb(116,114,113)" stroke-width="1" opacity="1" d="M 693.5 464 L 695 467.5 L 692 465.5 L 693.5 464 Z " /><path fill="rgb(116,114,113)" stroke="rgb(116,114,113)" stroke-width="1" opacity="1" d="M 793.5 464 L 794.5 466 L 793.5 464 Z " /><path fill="rgb(116,114,113)" stroke="rgb(116,114,113)" stroke-width="1" opacity="1" d="M 823.5 467 L 824.5 469 L 823.5 467 Z " /><path fill="rgb(116,114,113)" stroke="rgb(116,114,113)" stroke-width="1" opacity="1" d="M 797.5 470 L 798.5 472 L 797.5 470 Z " /><path fill="rgb(116,114,113)" stroke="rgb(116,114,113)" stroke-width="1" opacity="1" d="M 668.5 472 L 669 474.5 L 668 474.5 L 668.5 472 Z " /><path fill="rgb(116,114,113)" stroke="rgb(116,114,113)" stroke-width="1" opacity="1" d="M 669.5 477 L 668.5 479 L 669.5 477 Z " /><path fill="rgb(116,114,113)" stroke="rgb(116,114,113)" stroke-width="1" opacity="1" d="M 833.5 477 L 834.5 479 L 833.5 477 Z " /><path fill="rgb(116,114,113)" stroke="rgb(116,114,113)" stroke-width="1" opacity="1" d="M 802.5 479 L 804 481.5 L 802 480.5 L 802.5 479 Z " /><path fill="rgb(116,114,113)" stroke="rgb(116,114,113)" stroke-width="1" opacity="1" d="M 805.5 482 L 806.5 484 L 805.5 482 Z " /><path fill="rgb(116,114,113)" stroke="rgb(116,114,113)" stroke-width="1" opacity="1" d="M 809.5 485 L 813.5 490 L 809.5 485 Z " /><path fill="rgb(116,114,113)" stroke="rgb(116,114,113)" stroke-width="1" opacity="1" d="M 714.5 490 L 717.5 494 L 714.5 490 Z " /><path fill="rgb(116,114,113)" stroke="rgb(116,114,113)" stroke-width="1" opacity="1" d="M 815.5 491 L 818.5 495 Q 816.3 495.8 817 493.5 L 815.5 491 Z " /><path fill="rgb(116,114,113)" stroke="rgb(116,114,113)" stroke-width="1" opacity="1" d="M 785.5 503 L 784.5 505 L 785.5 503 Z " /><path fill="rgb(116,114,113)" stroke="rgb(116,114,113)" stroke-width="1" opacity="1" d="M 781.5 506 L 780.5 508 L 781.5 506 Z " /><path fill="rgb(116,114,113)" stroke="rgb(116,114,113)" stroke-width="1" opacity="1" d="M 777.5 509 L 774.5 513 L 777.5 509 Z " /><path fill="rgb(116,114,113)" stroke="rgb(116,114,113)" stroke-width="1" opacity="1" d="M 609.5 511 L 607.5 514 L 609.5 511 Z " /><path fill="rgb(116,114,113)" stroke="rgb(116,114,113)" stroke-width="1" opacity="1" d="M 850.5 514 L 851 516.5 L 850 516.5 L 850.5 514 Z " /><path fill="rgb(116,114,113)" stroke="rgb(116,114,113)" stroke-width="1" opacity="1" d="M 709.5 516 L 707.5 519 L 709.5 516 Z " /><path fill="rgb(116,114,113)" stroke="rgb(116,114,113)" stroke-width="1" opacity="1" d="M 610.5 517 L 611.5 519 L 610.5 517 Z " /><path fill="rgb(116,114,113)" stroke="rgb(116,114,113)" stroke-width="1" opacity="1" d="M 767.5 518 L 759.5 527 L 767.5 518 Z " /><path fill="rgb(116,114,113)" stroke="rgb(116,114,113)" stroke-width="1" opacity="1" d="M 613.5 519 L 615.5 522 L 613.5 519 Z " /><path fill="rgb(116,114,113)" stroke="rgb(116,114,113)" stroke-width="1" opacity="1" d="M 619.5 523 L 620.5 525 L 619.5 523 Z " /><path fill="rgb(116,114,113)" stroke="rgb(116,114,113)" stroke-width="1" opacity="1" d="M 384.5 524 L 385 526.5 L 384 526.5 L 384.5 524 Z " /><path fill="rgb(116,114,113)" stroke="rgb(116,114,113)" stroke-width="1" opacity="1" d="M 701.5 524 L 697.5 529 L 701.5 524 Z " /><path fill="rgb(116,114,113)" stroke="rgb(116,114,113)" stroke-width="1" opacity="1" d="M 695.5 529 L 694.5 531 L 695.5 529 Z " /><path fill="rgb(116,114,113)" stroke="rgb(116,114,113)" stroke-width="1" opacity="1" d="M 692.5 531 L 691.5 533 L 689.5 534 L 690.5 532 L 692.5 531 Z " /><path fill="rgb(116,114,113)" stroke="rgb(116,114,113)" stroke-width="1" opacity="1" d="M 850.5 531 L 851 533.5 L 850 533.5 L 850.5 531 Z " /><path fill="rgb(116,114,113)" stroke="rgb(116,114,113)" stroke-width="1" opacity="1" d="M 383.5 533 L 384 535.5 L 383 535.5 L 383.5 533 Z " /><path fill="rgb(116,114,113)" stroke="rgb(116,114,113)" stroke-width="1" opacity="1" d="M 751.5 535 L 748.5 539 L 751.5 535 Z " /><path fill="rgb(116,114,113)" stroke="rgb(116,114,113)" stroke-width="1" opacity="1" d="M 650.5 536 L 653 536.5 L 650.5 537 L 650.5 536 Z " /><path fill="rgb(116,114,113)" stroke="rgb(116,114,113)" stroke-width="1" opacity="1" d="M 655.5 537 L 658 537.5 L 655.5 538 L 655.5 537 Z " /><path fill="rgb(116,114,113)" stroke="rgb(116,114,113)" stroke-width="1" opacity="1" d="M 663.5 538 L 674 538.5 L 663.5 539 L 663.5 538 Z " /><path fill="rgb(116,114,113)" stroke="rgb(116,114,113)" stroke-width="1" opacity="1" d="M 744.5 543 L 741.5 547 L 744.5 543 Z " /><path fill="rgb(116,114,113)" stroke="rgb(116,114,113)" stroke-width="1" opacity="1" d="M 382.5 545 L 383 548.5 L 382 548.5 L 382.5 545 Z " /><path fill="rgb(116,114,113)" stroke="rgb(116,114,113)" stroke-width="1" opacity="1" d="M 737.5 551 L 732.5 557 L 737.5 551 Z " /><path fill="rgb(116,114,113)" stroke="rgb(116,114,113)" stroke-width="1" opacity="1" d="M 414.5 555 L 415 557.5 L 414 557.5 L 414.5 555 Z " /><path fill="rgb(116,114,113)" stroke="rgb(116,114,113)" stroke-width="1" opacity="1" d="M 548.5 556 L 551 556.5 L 548.5 557 L 548.5 556 Z " /><path fill="rgb(116,114,113)" stroke="rgb(116,114,113)" stroke-width="1" opacity="1" d="M 569.5 556 L 572 556.5 L 569.5 557 L 569.5 556 Z " /><path fill="rgb(116,114,113)" stroke="rgb(116,114,113)" stroke-width="1" opacity="1" d="M 413.5 560 L 414 563.5 L 413 563.5 L 413.5 560 Z " /><path fill="rgb(116,114,113)" stroke="rgb(116,114,113)" stroke-width="1" opacity="1" d="M 781.5 566 L 785.5 571 L 781.5 566 Z " /><path fill="rgb(116,114,113)" stroke="rgb(116,114,113)" stroke-width="1" opacity="1" d="M 412.5 567 L 413 570.5 L 412 570.5 L 412.5 567 Z " /><path fill="rgb(116,114,113)" stroke="rgb(116,114,113)" stroke-width="1" opacity="1" d="M 757.5 568 L 756.5 570 L 757.5 568 Z " /><path fill="rgb(116,114,113)" stroke="rgb(116,114,113)" stroke-width="1" opacity="1" d="M 719.5 569 L 717.5 572 L 719.5 569 Z " /><path fill="rgb(116,114,113)" stroke="rgb(116,114,113)" stroke-width="1" opacity="1" d="M 602.5 570 L 603.5 572 L 602.5 570 Z " /><path fill="rgb(116,114,113)" stroke="rgb(116,114,113)" stroke-width="1" opacity="1" d="M 752.5 571 L 750.5 574 L 752.5 571 Z " /><path fill="rgb(116,114,113)" stroke="rgb(116,114,113)" stroke-width="1" opacity="1" d="M 607.5 573 L 608.5 575 L 607.5 573 Z " /><path fill="rgb(116,114,113)" stroke="rgb(116,114,113)" stroke-width="1" opacity="1" d="M 411.5 574 L 412 578.5 L 411 578.5 L 411.5 574 Z " /><path fill="rgb(116,114,113)" stroke="rgb(116,114,113)" stroke-width="1" opacity="1" d="M 713.5 574 L 712.5 576 L 713.5 574 Z " /><path fill="rgb(116,114,113)" stroke="rgb(116,114,113)" stroke-width="1" opacity="1" d="M 748.5 574 L 746.5 577 L 748.5 574 Z " /><path fill="rgb(116,114,113)" stroke="rgb(116,114,113)" stroke-width="1" opacity="1" d="M 710.5 576 L 709.5 578 L 710.5 576 Z " /><path fill="rgb(116,114,113)" stroke="rgb(116,114,113)" stroke-width="1" opacity="1" d="M 490.5 577 L 489.5 579 L 490.5 577 Z " /><path fill="rgb(116,114,113)" stroke="rgb(116,114,113)" stroke-width="1" opacity="1" d="M 743.5 578 L 732.5 590 L 743.5 578 Z " /><path fill="rgb(116,114,113)" stroke="rgb(116,114,113)" stroke-width="1" opacity="1" d="M 790.5 583 L 791 586.5 L 790 586.5 L 790.5 583 Z " /><path fill="rgb(116,114,113)" stroke="rgb(116,114,113)" stroke-width="1" opacity="1" d="M 410.5 585 L 411 594.5 L 410 594.5 L 410.5 585 Z " /><path fill="rgb(116,114,113)" stroke="rgb(116,114,113)" stroke-width="1" opacity="1" d="M 482.5 585 L 480.5 588 L 482.5 585 Z " /><path fill="rgb(116,114,113)" stroke="rgb(116,114,113)" stroke-width="1" opacity="1" d="M 382.5 586 L 383 589.5 L 382 589.5 L 382.5 586 Z " /><path fill="rgb(116,114,113)" stroke="rgb(116,114,113)" stroke-width="1" opacity="1" d="M 477.5 592 L 476.5 594 L 477.5 592 Z " /><path fill="rgb(116,114,113)" stroke="rgb(116,114,113)" stroke-width="1" opacity="1" d="M 790.5 598 L 791 602.5 L 790 602.5 L 790.5 598 Z " /><path fill="rgb(116,114,113)" stroke="rgb(116,114,113)" stroke-width="1" opacity="1" d="M 818.5 602 L 817.5 604 L 818.5 602 Z " /><path fill="rgb(116,114,113)" stroke="rgb(116,114,113)" stroke-width="1" opacity="1" d="M 787.5 606 L 784.5 610 L 787.5 606 Z " /><path fill="rgb(116,114,113)" stroke="rgb(116,114,113)" stroke-width="1" opacity="1" d="M 410.5 610 L 411 620.5 L 410 620.5 L 410.5 610 Z " /><path fill="rgb(116,114,113)" stroke="rgb(116,114,113)" stroke-width="1" opacity="1" d="M 673.5 611 L 676 611.5 L 673.5 612 L 673.5 611 Z " /><path fill="rgb(116,114,113)" stroke="rgb(116,114,113)" stroke-width="1" opacity="1" d="M 780.5 611 L 779.5 613 L 780.5 611 Z " /><path fill="rgb(116,114,113)" stroke="rgb(116,114,113)" stroke-width="1" opacity="1" d="M 811.5 611 L 810.5 613 L 811.5 611 Z " /><path fill="rgb(116,114,113)" stroke="rgb(116,114,113)" stroke-width="1" opacity="1" d="M 668.5 612 L 671 612.5 L 668.5 613 L 668.5 612 Z " /><path fill="rgb(116,114,113)" stroke="rgb(116,114,113)" stroke-width="1" opacity="1" d="M 662.5 613 L 665 613.5 L 662.5 614 L 662.5 613 Z " /><path fill="rgb(116,114,113)" stroke="rgb(116,114,113)" stroke-width="1" opacity="1" d="M 654.5 614 L 658 614.5 L 654.5 615 L 654.5 614 Z " /><path fill="rgb(116,114,113)" stroke="rgb(116,114,113)" stroke-width="1" opacity="1" d="M 775.5 614 L 774.5 616 L 772.5 617 L 773.5 615 L 775.5 614 Z " /><path fill="rgb(116,114,113)" stroke="rgb(116,114,113)" stroke-width="1" opacity="1" d="M 643.5 615 L 649 615.5 L 643.5 616 L 643.5 615 Z " /><path fill="rgb(116,114,113)" stroke="rgb(116,114,113)" stroke-width="1" opacity="1" d="M 624.5 616 L 635 616.5 L 624.5 617 L 624.5 616 Z " /><path fill="rgb(116,114,113)" stroke="rgb(116,114,113)" stroke-width="1" opacity="1" d="M 586.5 617 L 609 617.5 L 586.5 618 L 586.5 617 Z " /><path fill="rgb(116,114,113)" stroke="rgb(116,114,113)" stroke-width="1" opacity="1" d="M 557.5 618 L 568 618.5 L 557.5 619 L 557.5 618 Z " /><path fill="rgb(116,114,113)" stroke="rgb(116,114,113)" stroke-width="1" opacity="1" d="M 546.5 619 L 551 619.5 L 546.5 620 L 546.5 619 Z " /><path fill="rgb(116,114,113)" stroke="rgb(116,114,113)" stroke-width="1" opacity="1" d="M 467.5 620 L 468 624.5 L 467 624.5 L 467.5 620 Z " /><path fill="rgb(116,114,113)" stroke="rgb(116,114,113)" stroke-width="1" opacity="1" d="M 538.5 620 L 542 620.5 L 538.5 621 L 538.5 620 Z " /><path fill="rgb(116,114,113)" stroke="rgb(116,114,113)" stroke-width="1" opacity="1" d="M 778.5 621 L 777.5 623 L 778.5 621 Z " /><path fill="rgb(116,114,113)" stroke="rgb(116,114,113)" stroke-width="1" opacity="1" d="M 467.5 626 L 468 630.5 L 467 630.5 L 467.5 626 Z " /><path fill="rgb(116,114,113)" stroke="rgb(116,114,113)" stroke-width="1" opacity="1" d="M 781.5 627 L 782 629.5 L 781 629.5 L 781.5 627 Z " /><path fill="rgb(116,114,113)" stroke="rgb(116,114,113)" stroke-width="1" opacity="1" d="M 411.5 628 L 412 632.5 L 411 632.5 L 411.5 628 Z " /><path fill="rgb(116,114,113)" stroke="rgb(116,114,113)" stroke-width="1" opacity="1" d="M 509.5 629 L 508.5 631 L 509.5 629 Z " /><path fill="rgb(116,114,113)" stroke="rgb(116,114,113)" stroke-width="1" opacity="1" d="M 762.5 629 L 764 629.5 L 760.5 631 L 760.5 630 L 762.5 629 Z " /><path fill="rgb(116,114,113)" stroke="rgb(116,114,113)" stroke-width="1" opacity="1" d="M 506.5 631 L 505.5 633 L 506.5 631 Z " /><path fill="rgb(116,114,113)" stroke="rgb(116,114,113)" stroke-width="1" opacity="1" d="M 780.5 632 L 781 634.5 L 780 634.5 L 780.5 632 Z " /><path fill="rgb(116,114,113)" stroke="rgb(116,114,113)" stroke-width="1" opacity="1" d="M 468.5 633 L 469 635.5 L 468 635.5 L 468.5 633 Z " /><path fill="rgb(116,114,113)" stroke="rgb(116,114,113)" stroke-width="1" opacity="1" d="M 779.5 637 L 780 639.5 L 779 639.5 L 779.5 637 Z " /><path fill="rgb(116,114,113)" stroke="rgb(116,114,113)" stroke-width="1" opacity="1" d="M 412.5 638 L 413 641.5 L 412 641.5 L 412.5 638 Z " /><path fill="rgb(116,114,113)" stroke="rgb(116,114,113)" stroke-width="1" opacity="1" d="M 499.5 638 L 498.5 640 L 499.5 638 Z " /><path fill="rgb(116,114,113)" stroke="rgb(116,114,113)" stroke-width="1" opacity="1" d="M 496.5 644 L 497 649.5 L 496 649.5 L 496.5 644 Z " /><path fill="rgb(116,114,113)" stroke="rgb(116,114,113)" stroke-width="1" opacity="1" d="M 413.5 646 L 414 649.5 L 413 649.5 L 413.5 646 Z " /><path fill="rgb(116,114,113)" stroke="rgb(116,114,113)" stroke-width="1" opacity="1" d="M 473.5 647 L 474.5 649 L 473.5 647 Z " /><path fill="rgb(116,114,113)" stroke="rgb(116,114,113)" stroke-width="1" opacity="1" d="M 475.5 650 L 482.5 658 L 475.5 650 Z " /><path fill="rgb(116,114,113)" stroke="rgb(116,114,113)" stroke-width="1" opacity="1" d="M 414.5 653 L 415 655.5 L 414 655.5 L 414.5 653 Z " /><path fill="rgb(116,114,113)" stroke="rgb(116,114,113)" stroke-width="1" opacity="1" d="M 498.5 654 L 504.5 661 L 498.5 654 Z " /><path fill="rgb(116,114,113)" stroke="rgb(116,114,113)" stroke-width="1" opacity="1" d="M 658.5 654 L 661 654.5 L 658.5 655 L 658.5 654 Z " /><path fill="rgb(116,114,113)" stroke="rgb(116,114,113)" stroke-width="1" opacity="1" d="M 644.5 657 L 647 657.5 L 644.5 658 L 644.5 657 Z " /><path fill="rgb(116,114,113)" stroke="rgb(116,114,113)" stroke-width="1" opacity="1" d="M 639.5 658 L 642 658.5 L 639.5 659 L 639.5 658 Z " /><path fill="rgb(116,114,113)" stroke="rgb(116,114,113)" stroke-width="1" opacity="1" d="M 682.5 658 L 685 658.5 L 682.5 659 L 682.5 658 Z " /><path fill="rgb(116,114,113)" stroke="rgb(116,114,113)" stroke-width="1" opacity="1" d="M 415.5 659 L 416 661.5 L 415 661.5 L 415.5 659 Z " /><path fill="rgb(116,114,113)" stroke="rgb(116,114,113)" stroke-width="1" opacity="1" d="M 485.5 659 L 486.5 661 L 485.5 659 Z " /><path fill="rgb(116,114,113)" stroke="rgb(116,114,113)" stroke-width="1" opacity="1" d="M 633.5 659 L 636 659.5 L 633.5 660 L 633.5 659 Z " /><path fill="rgb(116,114,113)" stroke="rgb(116,114,113)" stroke-width="1" opacity="1" d="M 488.5 661 L 489.5 663 L 488.5 661 Z " /><path fill="rgb(116,114,113)" stroke="rgb(116,114,113)" stroke-width="1" opacity="1" d="M 622.5 661 L 625 661.5 L 622.5 662 L 622.5 661 Z " /><path fill="rgb(116,114,113)" stroke="rgb(116,114,113)" stroke-width="1" opacity="1" d="M 615.5 662 L 619 662.5 L 615.5 663 L 615.5 662 Z " /><path fill="rgb(116,114,113)" stroke="rgb(116,114,113)" stroke-width="1" opacity="1" d="M 609.5 663 L 612 663.5 L 609.5 664 L 609.5 663 Z " /><path fill="rgb(116,114,113)" stroke="rgb(116,114,113)" stroke-width="1" opacity="1" d="M 602.5 664 L 605 664.5 L 602.5 665 L 602.5 664 Z " /><path fill="rgb(116,114,113)" stroke="rgb(116,114,113)" stroke-width="1" opacity="1" d="M 594.5 665 L 598 665.5 L 594.5 666 L 594.5 665 Z " /><path fill="rgb(116,114,113)" stroke="rgb(116,114,113)" stroke-width="1" opacity="1" d="M 585.5 666 L 590 666.5 L 585.5 667 L 585.5 666 Z " /><path fill="rgb(116,114,113)" stroke="rgb(116,114,113)" stroke-width="1" opacity="1" d="M 521.5 667 L 524 667.5 L 521.5 668 L 521.5 667 Z " /><path fill="rgb(116,114,113)" stroke="rgb(116,114,113)" stroke-width="1" opacity="1" d="M 575.5 667 L 580 667.5 L 575.5 668 L 575.5 667 Z " /><path fill="rgb(116,114,113)" stroke="rgb(116,114,113)" stroke-width="1" opacity="1" d="M 642.5 667 L 645 667.5 L 642.5 668 L 642.5 667 Z " /><path fill="rgb(116,114,113)" stroke="rgb(116,114,113)" stroke-width="1" opacity="1" d="M 527.5 668 L 531 668.5 L 527.5 669 L 527.5 668 Z " /><path fill="rgb(116,114,113)" stroke="rgb(116,114,113)" stroke-width="1" opacity="1" d="M 561.5 668 L 569 668.5 L 561.5 669 L 561.5 668 Z " /><path fill="rgb(116,114,113)" stroke="rgb(116,114,113)" stroke-width="1" opacity="1" d="M 637.5 668 L 640 668.5 L 637.5 669 L 637.5 668 Z " /><path fill="rgb(116,114,113)" stroke="rgb(116,114,113)" stroke-width="1" opacity="1" d="M 541.5 669 L 549 669.5 L 541.5 670 L 541.5 669 Z " /><path fill="rgb(116,114,113)" stroke="rgb(116,114,113)" stroke-width="1" opacity="1" d="M 631.5 669 L 634 669.5 L 631.5 670 L 631.5 669 Z " /><path fill="rgb(116,114,113)" stroke="rgb(116,114,113)" stroke-width="1" opacity="1" d="M 624.5 670 L 628 670.5 L 624.5 671 L 624.5 670 Z " /><path fill="rgb(116,114,113)" stroke="rgb(116,114,113)" stroke-width="1" opacity="1" d="M 512.5 671 L 515 671.5 L 512.5 672 L 512.5 671 Z " /><path fill="rgb(116,114,113)" stroke="rgb(116,114,113)" stroke-width="1" opacity="1" d="M 617.5 671 L 621 671.5 L 617.5 672 L 617.5 671 Z " /><path fill="rgb(116,114,113)" stroke="rgb(116,114,113)" stroke-width="1" opacity="1" d="M 609.5 672 L 613 672.5 L 609.5 673 L 609.5 672 Z " /><path fill="rgb(116,114,113)" stroke="rgb(116,114,113)" stroke-width="1" opacity="1" d="M 522.5 673 L 525 673.5 L 522.5 674 L 522.5 673 Z " /><path fill="rgb(116,114,113)" stroke="rgb(116,114,113)" stroke-width="1" opacity="1" d="M 599.5 673 L 605 673.5 L 599.5 674 L 599.5 673 Z " /><path fill="rgb(116,114,113)" stroke="rgb(116,114,113)" stroke-width="1" opacity="1" d="M 529.5 674 L 533 674.5 L 529.5 675 L 529.5 674 Z " /><path fill="rgb(116,114,113)" stroke="rgb(116,114,113)" stroke-width="1" opacity="1" d="M 587.5 674 L 594 674.5 L 587.5 675 L 587.5 674 Z " /><path fill="rgb(116,114,113)" stroke="rgb(116,114,113)" stroke-width="1" opacity="1" d="M 539.5 675 L 549 675.5 L 539.5 676 L 539.5 675 Z " /><path fill="rgb(116,114,113)" stroke="rgb(116,114,113)" stroke-width="1" opacity="1" d="M 569.5 675 L 580 675.5 L 569.5 676 L 569.5 675 Z " /><path fill="rgb(116,114,113)" stroke="rgb(116,114,113)" stroke-width="1" opacity="1" d="M 419.5 679 L 420 681.5 L 419 681.5 L 419.5 679 Z " /><path fill="rgb(116,114,113)" stroke="rgb(116,114,113)" stroke-width="1" opacity="1" d="M 408.5 682 L 410 684.5 L 408 683.5 L 408.5 682 Z " /><path fill="rgb(116,114,113)" stroke="rgb(116,114,113)" stroke-width="1" opacity="1" d="M 415.5 696 L 418 699.5 L 416 698.5 L 415.5 696 Z " /><path fill="rgb(116,114,113)" stroke="rgb(116,114,113)" stroke-width="1" opacity="1" d="M 419.5 703 L 420.5 705 L 419.5 703 Z " /><path fill="rgb(116,114,113)" stroke="rgb(116,114,113)" stroke-width="1" opacity="1" d="M 421.5 706 L 422.5 708 L 421.5 706 Z " /><path fill="rgb(116,114,113)" stroke="rgb(116,114,113)" stroke-width="1" opacity="1" d="M 212.5 709 L 213 711.5 L 212 711.5 L 212.5 709 Z " /><path fill="rgb(116,114,113)" stroke="rgb(116,114,113)" stroke-width="1" opacity="1" d="M 425.5 712 L 426.5 714 L 425.5 712 Z " /><path fill="rgb(116,114,113)" stroke="rgb(116,114,113)" stroke-width="1" opacity="1" d="M 428.5 713 L 429 714.5 L 428.5 716 Q 430.8 715.3 430 717.5 L 427 715.5 L 428.5 713 Z " /><path fill="rgb(116,114,113)" stroke="rgb(116,114,113)" stroke-width="1" opacity="1" d="M 756.5 714 L 743.5 728 L 756.5 714 Z " /><path fill="rgb(116,114,113)" stroke="rgb(116,114,113)" stroke-width="1" opacity="1" d="M 738.5 731 L 734.5 736 L 738.5 731 Z " /><path fill="rgb(116,114,113)" stroke="rgb(116,114,113)" stroke-width="1" opacity="1" d="M 287.5 732 L 288 734.5 L 287 734.5 L 287.5 732 Z " /><path fill="rgb(116,114,113)" stroke="rgb(116,114,113)" stroke-width="1" opacity="1" d="M 731.5 737 L 728.5 741 L 731.5 737 Z " /><path fill="rgb(116,114,113)" stroke="rgb(116,114,113)" stroke-width="1" opacity="1" d="M 725.5 742 L 722.5 746 L 725.5 742 Z " /><path fill="rgb(116,114,113)" stroke="rgb(116,114,113)" stroke-width="1" opacity="1" d="M 720.5 746 L 718.5 749 L 720.5 746 Z " /><path fill="rgb(116,114,113)" stroke="rgb(116,114,113)" stroke-width="1" opacity="1" d="M 716.5 749 L 714.5 752 L 716.5 749 Z " /><path fill="rgb(116,114,113)" stroke="rgb(116,114,113)" stroke-width="1" opacity="1" d="M 459.5 750 L 461.5 753 L 459.5 750 Z " /><path fill="rgb(116,114,113)" stroke="rgb(116,114,113)" stroke-width="1" opacity="1" d="M 289.5 751 L 290 754.5 L 289 754.5 L 289.5 751 Z " /><path fill="rgb(116,114,113)" stroke="rgb(116,114,113)" stroke-width="1" opacity="1" d="M 712.5 752 L 711.5 754 L 712.5 752 Z " /><path fill="rgb(116,114,113)" stroke="rgb(116,114,113)" stroke-width="1" opacity="1" d="M 453.5 753 L 451.5 756 L 453.5 753 Z " /><path fill="rgb(116,114,113)" stroke="rgb(116,114,113)" stroke-width="1" opacity="1" d="M 463.5 753 L 465.5 756 L 463.5 753 Z " /><path fill="rgb(116,114,113)" stroke="rgb(116,114,113)" stroke-width="1" opacity="1" d="M 709.5 754 L 708.5 756 L 709.5 754 Z " /><path fill="rgb(116,114,113)" stroke="rgb(116,114,113)" stroke-width="1" opacity="1" d="M 467.5 756 L 468.5 758 L 467.5 756 Z " /><path fill="rgb(116,114,113)" stroke="rgb(116,114,113)" stroke-width="1" opacity="1" d="M 448.5 757 L 446.5 760 L 448.5 757 Z " /><path fill="rgb(116,114,113)" stroke="rgb(116,114,113)" stroke-width="1" opacity="1" d="M 705.5 757 L 704.5 759 L 705.5 757 Z " /><path fill="rgb(116,114,113)" stroke="rgb(116,114,113)" stroke-width="1" opacity="1" d="M 470.5 758 L 471.5 760 L 470.5 758 Z " /><path fill="rgb(116,114,113)" stroke="rgb(116,114,113)" stroke-width="1" opacity="1" d="M 702.5 759 L 701.5 761 L 702.5 759 Z " /><path fill="rgb(116,114,113)" stroke="rgb(116,114,113)" stroke-width="1" opacity="1" d="M 444.5 760 L 443.5 762 L 444.5 760 Z " /><path fill="rgb(116,114,113)" stroke="rgb(116,114,113)" stroke-width="1" opacity="1" d="M 473.5 760 L 474.5 762 L 473.5 760 Z " /><path fill="rgb(116,114,113)" stroke="rgb(116,114,113)" stroke-width="1" opacity="1" d="M 699.5 761 L 698.5 763 L 699.5 761 Z " /><path fill="rgb(116,114,113)" stroke="rgb(116,114,113)" stroke-width="1" opacity="1" d="M 476.5 762 L 477.5 764 L 476.5 762 Z " /><path fill="rgb(116,114,113)" stroke="rgb(116,114,113)" stroke-width="1" opacity="1" d="M 440.5 763 L 439.5 765 L 440.5 763 Z " /><path fill="rgb(116,114,113)" stroke="rgb(116,114,113)" stroke-width="1" opacity="1" d="M 696.5 763 L 695.5 765 L 693.5 766 L 694.5 764 L 696.5 763 Z " /><path fill="rgb(116,114,113)" stroke="rgb(116,114,113)" stroke-width="1" opacity="1" d="M 479.5 764 L 480.5 766 L 479.5 764 Z " /><path fill="rgb(116,114,113)" stroke="rgb(116,114,113)" stroke-width="1" opacity="1" d="M 437.5 765 L 436.5 767 L 437.5 765 Z " /><path fill="rgb(116,114,113)" stroke="rgb(116,114,113)" stroke-width="1" opacity="1" d="M 290.5 766 L 292 768.5 L 290 767.5 L 290.5 766 Z " /><path fill="rgb(116,114,113)" stroke="rgb(116,114,113)" stroke-width="1" opacity="1" d="M 691.5 766 L 690.5 768 L 691.5 766 Z " /><path fill="rgb(116,114,113)" stroke="rgb(116,114,113)" stroke-width="1" opacity="1" d="M 434.5 767 L 433.5 769 L 434.5 767 Z " /><path fill="rgb(116,114,113)" stroke="rgb(116,114,113)" stroke-width="1" opacity="1" d="M 486.5 768 L 487.5 770 L 486.5 768 Z " /><path fill="rgb(116,114,113)" stroke="rgb(116,114,113)" stroke-width="1" opacity="1" d="M 429.5 770 L 428.5 772 L 429.5 770 Z " /><path fill="rgb(116,114,113)" stroke="rgb(116,114,113)" stroke-width="1" opacity="1" d="M 684.5 770 L 683.5 772 L 684.5 770 Z " /><path fill="rgb(116,114,113)" stroke="rgb(116,114,113)" stroke-width="1" opacity="1" d="M 424.5 773 L 423.5 775 L 421.5 776 L 422.5 774 L 424.5 773 Z " /><path fill="rgb(116,114,113)" stroke="rgb(116,114,113)" stroke-width="1" opacity="1" d="M 495.5 773 L 498 774.5 L 496.5 775 L 495.5 773 Z " /><path fill="rgb(116,114,113)" stroke="rgb(116,114,113)" stroke-width="1" opacity="1" d="M 316.5 775 L 319 775.5 L 316.5 776 L 316.5 775 Z " /><path fill="rgb(116,114,113)" stroke="rgb(116,114,113)" stroke-width="1" opacity="1" d="M 499.5 775 L 502 776.5 L 500.5 777 L 499.5 775 Z " /><path fill="rgb(116,114,113)" stroke="rgb(116,114,113)" stroke-width="1" opacity="1" d="M 328.5 777 L 331 777.5 L 328.5 778 L 328.5 777 Z " /><path fill="rgb(116,114,113)" stroke="rgb(116,114,113)" stroke-width="1" opacity="1" d="M 335.5 778 L 339 778.5 L 335.5 779 L 335.5 778 Z " /><path fill="rgb(116,114,113)" stroke="rgb(116,114,113)" stroke-width="1" opacity="1" d="M 343.5 779 L 347 779.5 L 343.5 780 L 343.5 779 Z " /><path fill="rgb(116,114,113)" stroke="rgb(116,114,113)" stroke-width="1" opacity="1" d="M 743.5 779 L 742.5 781 L 743.5 779 Z " /><path fill="rgb(116,114,113)" stroke="rgb(116,114,113)" stroke-width="1" opacity="1" d="M 352.5 780 L 356 780.5 L 352.5 781 L 352.5 780 Z " /><path fill="rgb(116,114,113)" stroke="rgb(116,114,113)" stroke-width="1" opacity="1" d="M 360.5 781 L 365 781.5 L 360.5 782 L 360.5 781 Z " /><path fill="rgb(116,114,113)" stroke="rgb(116,114,113)" stroke-width="1" opacity="1" d="M 371.5 782 L 376 782.5 L 371.5 783 L 371.5 782 Z " /><path fill="rgb(116,114,113)" stroke="rgb(116,114,113)" stroke-width="1" opacity="1" d="M 382.5 783 L 387 783.5 L 382.5 784 L 382.5 783 Z " /><path fill="rgb(116,114,113)" stroke="rgb(116,114,113)" stroke-width="1" opacity="1" d="M 395.5 784 L 401 784.5 L 395.5 785 L 395.5 784 Z " /><path fill="rgb(116,114,113)" stroke="rgb(116,114,113)" stroke-width="1" opacity="1" d="M 728.5 794 L 727.5 796 L 728.5 794 Z " /><path fill="rgb(116,114,113)" stroke="rgb(116,114,113)" stroke-width="1" opacity="1" d="M 558.5 795 L 561 795.5 L 558.5 796 L 558.5 795 Z " /><path fill="rgb(116,114,113)" stroke="rgb(116,114,113)" stroke-width="1" opacity="1" d="M 617.5 795 L 620 795.5 L 617.5 796 L 617.5 795 Z " /><path fill="rgb(116,114,113)" stroke="rgb(116,114,113)" stroke-width="1" opacity="1" d="M 565.5 796 L 569 796.5 L 565.5 797 L 565.5 796 Z " /><path fill="rgb(116,114,113)" stroke="rgb(116,114,113)" stroke-width="1" opacity="1" d="M 609.5 796 L 613 796.5 L 609.5 797 L 609.5 796 Z " /><path fill="rgb(116,114,113)" stroke="rgb(116,114,113)" stroke-width="1" opacity="1" d="M 573.5 797 L 581 797.5 L 573.5 798 L 573.5 797 Z " /><path fill="rgb(116,114,113)" stroke="rgb(116,114,113)" stroke-width="1" opacity="1" d="M 597.5 797 L 605 797.5 L 597.5 798 L 597.5 797 Z " /><path fill="rgb(116,114,113)" stroke="rgb(116,114,113)" stroke-width="1" opacity="1" d="M 723.5 798 L 722.5 800 L 723.5 798 Z " /><path fill="rgb(116,114,113)" stroke="rgb(116,114,113)" stroke-width="1" opacity="1" d="M 323.5 799 L 326 799.5 L 323.5 800 L 323.5 799 Z " /><path fill="rgb(116,114,113)" stroke="rgb(116,114,113)" stroke-width="1" opacity="1" d="M 346.5 802 L 349 802.5 L 346.5 803 L 346.5 802 Z " /><path fill="rgb(116,114,113)" stroke="rgb(116,114,113)" stroke-width="1" opacity="1" d="M 355.5 803 L 358 803.5 L 355.5 804 L 355.5 803 Z " /><path fill="rgb(116,114,113)" stroke="rgb(116,114,113)" stroke-width="1" opacity="1" d="M 366.5 804 L 369 804.5 L 366.5 805 L 366.5 804 Z " /><path fill="rgb(116,114,113)" stroke="rgb(116,114,113)" stroke-width="1" opacity="1" d="M 376.5 805 L 380 805.5 L 376.5 806 L 376.5 805 Z " /><path fill="rgb(116,114,113)" stroke="rgb(116,114,113)" stroke-width="1" opacity="1" d="M 392.5 806 L 396 806.5 L 392.5 807 L 392.5 806 Z " /><path fill="rgb(116,114,113)" stroke="rgb(116,114,113)" stroke-width="1" opacity="1" d="M 407.5 807 L 411 807.5 L 407.5 808 L 407.5 807 Z " /><path fill="rgb(116,114,113)" stroke="rgb(116,114,113)" stroke-width="1" opacity="1" d="M 425.5 808 L 430 808.5 L 425.5 809 L 425.5 808 Z " /><path fill="rgb(116,114,113)" stroke="rgb(116,114,113)" stroke-width="1" opacity="1" d="M 440.5 809 L 441.5 811 L 440.5 809 Z " /><path fill="rgb(116,114,113)" stroke="rgb(116,114,113)" stroke-width="1" opacity="1" d="M 445.5 813 L 446.5 815 L 445.5 813 Z " /><path fill="rgb(116,114,113)" stroke="rgb(116,114,113)" stroke-width="1" opacity="1" d="M 590.5 843 L 593 843.5 L 590.5 844 L 590.5 843 Z " /><path fill="rgb(116,114,113)" stroke="rgb(116,114,113)" stroke-width="1" opacity="1" d="M 526.5 844 L 529 844.5 L 526.5 845 L 526.5 844 Z " /><path fill="rgb(116,114,113)" stroke="rgb(116,114,113)" stroke-width="1" opacity="1" d="M 579.5 844 L 583 844.5 L 579.5 845 L 579.5 844 Z " /><path fill="rgb(116,114,113)" stroke="rgb(116,114,113)" stroke-width="1" opacity="1" d="M 543.5 845 L 562 845.5 L 543.5 846 L 543.5 845 Z " /><path fill="rgb(116,114,113)" stroke="rgb(116,114,113)" stroke-width="1" opacity="1" d="M 564.5 845 L 568 845.5 L 564.5 846 L 564.5 845 Z " /><path fill="rgb(254,142,63)" stroke="rgb(254,142,63)" stroke-width="1" opacity="1" d="M 0 0 L 1000 0 L 1000 1000 L 0 1000 L 0 0 Z M 398 154 L 397 155 L 385 155 L 384 156 L 376 156 L 375 157 L 368 157 L 356 160 L 351 160 L 326 166 L 302 174 Q 257 191 224 220 Q 189 249 169 293 Q 160 312 155 335 L 151 357 L 150 378 L 149 379 L 149 421 L 150 422 L 150 434 L 151 435 L 153 460 L 161 504 L 171 543 L 189 603 L 201 651 L 210 693 L 214 725 L 222 744 L 236 762 L 254 776 L 268 784 L 295 794 L 324 800 L 355 803 L 356 804 L 366 804 L 377 806 L 387 806 L 388 807 L 400 807 L 401 808 L 440 809 Q 459 826 486 836 L 507 842 L 524 845 L 534 845 L 535 846 L 568 846 L 569 845 L 593 844 L 594 843 L 601 843 L 602 842 L 620 840 L 651 833 L 688 820 Q 710 811 728 796 L 751 771 L 772 735 Q 783 713 790 688 L 802 640 L 805 620 Q 823 600 836 577 L 847 552 L 851 534 L 851 515 L 848 502 Q 843 488 835 479 L 823 467 L 819 464 L 809 447 L 798 436 L 796 435 L 794 414 L 792 408 L 788 378 L 779 339 Q 772 315 758 300 Q 742 281 722 268 Q 704 256 681 251 L 670 242 L 637 221 L 581 192 L 543 176 L 513 166 L 468 157 L 450 156 L 449 155 L 436 155 L 435 154 L 402 154 L 401 155 L 398 154 Z " /><path fill="rgb(128,128,128)" stroke="rgb(128,128,128)" stroke-width="1" opacity="1" d="M 397.5 154 L 400 154.5 L 397.5 155 L 397.5 154 Z " /><path fill="rgb(128,128,128)" stroke="rgb(128,128,128)" stroke-width="1" opacity="1" d="M 384.5 155 L 389 155.5 L 384.5 156 L 384.5 155 Z " /><path fill="rgb(128,128,128)" stroke="rgb(128,128,128)" stroke-width="1" opacity="1" d="M 375.5 156 L 378 156.5 L 375.5 157 L 375.5 156 Z " /><path fill="rgb(128,128,128)" stroke="rgb(128,128,128)" stroke-width="1" opacity="1" d="M 367.5 157 L 370 157.5 L 367.5 158 L 367.5 157 Z " /><path fill="rgb(128,128,128)" stroke="rgb(128,128,128)" stroke-width="1" opacity="1" d="M 407.5 193 L 440.5 193 L 441.5 194 L 451.5 194 L 452.5 195 L 467.5 196 L 508.5 205 L 511.5 207 L 521.5 209 L 535.5 214 Q 605.5 241 658.5 285 Q 681.4 287.1 696 297.5 L 694.5 298 L 693.5 297 L 677.5 297 Q 662 299.5 655 310.5 Q 646.7 321.7 648 342.5 L 672 423.5 Q 680.9 447.1 693.5 467 L 694 464.5 L 672 398.5 L 665 367.5 L 665 355.5 L 668 345.5 L 673.5 339 Q 678.5 333.5 690.5 335 L 694.5 336 L 706 347.5 Q 743.5 395.8 775 449 Q 786.1 453.5 793 463.5 L 803.5 482 L 815 490 L 817 493.5 L 815.5 494 L 814.5 493 L 805.5 493 L 785.5 503 L 759 526.5 L 720.5 569 Q 706.7 581.7 687.5 589 L 667.5 594 L 653.5 594 L 633.5 588 L 619.5 581 L 590.5 563 L 579.5 558 L 571.5 556 L 548.5 556 L 523.5 561 L 509.5 566 Q 491.3 573.4 480 587.5 L 470 606.5 L 467 620.5 L 467 630.5 Q 470.1 648.9 482.5 658 L 497.5 667 L 522.5 674 L 538.5 675 L 539.5 676 L 579.5 676 L 580.5 675 L 593.5 675 L 594.5 674 L 604.5 674 L 605.5 673 L 627.5 671 L 684.5 659 L 738.5 641 L 783 620 L 773 666.5 L 762 701.5 L 757 713.5 L 739.5 731 Q 704.5 763.5 657.5 784 L 634.5 792 L 616.5 796 L 597.5 797 L 596.5 798 L 581.5 798 L 580.5 797 L 569.5 797 L 568.5 796 L 550.5 794 L 520.5 785 L 488.5 770 L 459.5 750 L 457.5 750 Q 433.7 771.7 401.5 785 L 400.5 784 L 365.5 782 L 364.5 781 L 356.5 781 L 355.5 780 L 324.5 777 L 301.5 772 L 291 767.5 L 290 765.5 L 290 751.5 L 289 750.5 L 288 732.5 L 279 680.5 L 265 623.5 L 246 556.5 L 230 484.5 L 227 460.5 L 226 459.5 L 225 444.5 L 224 443.5 L 224 434.5 L 223 433.5 L 222 400.5 L 221 399.5 L 221 373.5 L 222 372.5 L 222 359.5 L 223 358.5 L 225 341.5 Q 229.3 322.3 237 306.5 Q 251.3 277.8 273.5 257 Q 301.8 230.3 339.5 213 L 383.5 196 L 395.5 195 L 396.5 194 L 406.5 194 L 407.5 193 Z M 508 309 L 498 311 L 485 316 L 464 330 Q 446 346 433 367 L 425 382 L 412 414 L 399 453 L 392 480 L 385 517 L 384 533 L 383 534 L 383 545 L 382 546 L 382 590 L 383 591 L 383 600 L 384 601 L 385 614 L 391 640 Q 404 683 427 716 L 430 718 L 424 700 L 416 665 L 414 647 L 413 646 L 413 639 L 412 638 L 411 611 L 410 610 L 411 580 L 412 579 L 412 572 L 413 571 L 415 553 L 421 528 L 428 507 L 448 464 L 467 433 L 492 379 L 501 365 L 513 354 L 519 351 L 530 349 Q 535 352 545 350 L 566 355 Q 586 362 603 372 L 604 373 Q 601 350 589 338 Q 564 307 508 309 Z M 628 336 Q 641 362 650 393 L 669 478 Q 637 492 610 511 Q 606 512 607 516 Q 619 525 635 532 L 651 537 L 663 538 L 664 539 L 674 539 L 683 537 L 698 529 Q 712 518 719 501 L 718 494 L 705 484 L 687 479 Q 677 480 673 478 L 660 424 L 660 420 L 648 376 L 633 338 Q 632 335 628 336 Z M 686 341 L 681 343 L 674 350 L 670 362 L 670 376 L 673 390 L 683 410 Q 690 420 702 424 L 711 424 L 718 420 L 722 414 L 725 402 L 725 392 L 723 381 Q 719 364 709 353 L 698 343 L 692 341 L 686 341 Z M 533 358 Q 521 360 514 366 Q 498 377 494 400 L 494 409 L 496 419 L 505 435 L 518 445 L 537 451 Q 557 451 569 442 Q 583 432 587 413 L 587 397 L 586 392 L 577 375 Q 569 365 557 360 Q 547 356 533 358 Z " /><path fill="rgb(128,128,128)" stroke="rgb(128,128,128)" stroke-width="1" opacity="1" d="M 242.5 205 L 241.5 207 L 242.5 205 Z " /><path fill="rgb(128,128,128)" stroke="rgb(128,128,128)" stroke-width="1" opacity="1" d="M 234.5 211 L 233.5 213 L 234.5 211 Z " /><path fill="rgb(128,128,128)" stroke="rgb(128,128,128)" stroke-width="1" opacity="1" d="M 229.5 215 L 228.5 217 L 229.5 215 Z " /><path fill="rgb(128,128,128)" stroke="rgb(128,128,128)" stroke-width="1" opacity="1" d="M 223.5 220 L 221.5 223 L 223.5 220 Z " /><path fill="rgb(128,128,128)" stroke="rgb(128,128,128)" stroke-width="1" opacity="1" d="M 654.5 232 L 655.5 234 L 654.5 232 Z " /><path fill="rgb(128,128,128)" stroke="rgb(128,128,128)" stroke-width="1" opacity="1" d="M 669.5 242 L 670.5 244 L 669.5 242 Z " /><path fill="rgb(128,128,128)" stroke="rgb(128,128,128)" stroke-width="1" opacity="1" d="M 754.5 296 L 757.5 300 L 754.5 296 Z " /><path fill="rgb(128,128,128)" stroke="rgb(128,128,128)" stroke-width="1" opacity="1" d="M 759.5 302 L 761.5 305 L 759.5 302 Z " /><path fill="rgb(128,128,128)" stroke="rgb(128,128,128)" stroke-width="1" opacity="1" d="M 762.5 306 L 763.5 308 L 762.5 306 Z " /><path fill="rgb(128,128,128)" stroke="rgb(128,128,128)" stroke-width="1" opacity="1" d="M 685.5 347 L 691.5 347 L 697.5 350 L 707 359.5 L 716 377.5 L 719 392.5 L 719 401.5 L 717 409.5 L 711.5 417 L 702.5 418 Q 693.8 414.8 689 407.5 L 678 385.5 L 676 375.5 L 676 361.5 Q 677.5 352.5 683.5 348 L 685.5 347 Z M 702 366 L 700 367 L 696 373 L 696 381 L 699 389 L 705 394 L 711 394 L 715 388 Q 716 377 712 372 L 707 366 L 702 366 Z " /><path fill="rgb(128,128,128)" stroke="rgb(128,128,128)" stroke-width="1" opacity="1" d="M 151.5 356 L 152 358.5 L 151 358.5 L 151.5 356 Z " /><path fill="rgb(128,128,128)" stroke="rgb(128,128,128)" stroke-width="1" opacity="1" d="M 150.5 364 L 151 366.5 L 150 366.5 L 150.5 364 Z " /><path fill="rgb(128,128,128)" stroke="rgb(128,128,128)" stroke-width="1" opacity="1" d="M 532.5 364 Q 546.8 362.2 555.5 366 Q 567.1 370.9 574 380.5 Q 579.1 386.9 581 396.5 L 581 411.5 Q 577.6 426.6 567.5 435 Q 560.7 441.2 550.5 444 L 536.5 445 Q 517.4 441.6 508 428.5 L 501 414.5 L 500 399.5 Q 503.1 381.1 515.5 372 Q 522.3 366.3 532.5 364 Z M 537 383 L 531 385 L 523 395 Q 522 403 525 407 Q 528 413 537 414 L 546 412 L 553 403 Q 554 394 551 391 Q 547 383 537 383 Z " /><path fill="rgb(128,128,128)" stroke="rgb(128,128,128)" stroke-width="1" opacity="1" d="M 700.5 375 Q 708.6 374.9 711 380.5 L 713 384.5 L 712 388.5 L 708.5 392 Q 703.8 391.8 702 388.5 L 699 382.5 L 699 376.5 L 700.5 375 Z " /><path fill="rgb(128,128,128)" stroke="rgb(128,128,128)" stroke-width="1" opacity="1" d="M 527.5 396 Q 541.2 395.3 546 403.5 L 548 406.5 Q 544.3 411.8 534.5 411 L 528 406.5 L 526 403.5 L 525 397 L 527.5 396 Z " /><path fill="rgb(128,128,128)" stroke="rgb(128,128,128)" stroke-width="1" opacity="1" d="M 793.5 413 L 794 415.5 L 793 415.5 L 793.5 413 Z " /><path fill="rgb(128,128,128)" stroke="rgb(128,128,128)" stroke-width="1" opacity="1" d="M 795.5 428 L 796 430.5 L 795 430.5 L 795.5 428 Z " /><path fill="rgb(128,128,128)" stroke="rgb(128,128,128)" stroke-width="1" opacity="1" d="M 798.5 436 L 808.5 447 L 798.5 436 Z " /><path fill="rgb(128,128,128)" stroke="rgb(128,128,128)" stroke-width="1" opacity="1" d="M 810.5 449 L 811.5 451 L 810.5 449 Z " /><path fill="rgb(128,128,128)" stroke="rgb(128,128,128)" stroke-width="1" opacity="1" d="M 769.5 564 Q 782.1 563.4 786 571.5 L 790 581.5 L 791 597.5 Q 788.8 598.7 790 603.5 L 783.5 610 Q 761.5 623.5 735.5 633 L 705.5 643 L 667.5 653 L 627.5 661 L 615.5 662 L 601.5 665 L 594.5 665 L 593.5 666 L 575.5 667 L 574.5 668 L 561.5 668 L 560.5 669 L 531.5 669 L 513.5 665 Q 503.5 661.5 498 653.5 Q 495.7 650.3 497 643.5 Q 499.3 636.8 504.5 633 L 519.5 625 L 542.5 620 L 567.5 619 L 568.5 618 L 608.5 618 L 609.5 617 L 648.5 616 L 649.5 615 L 670.5 613 L 687.5 609 Q 710.7 602.7 729.5 592 L 753.5 571 Q 759.9 565.9 769.5 564 Z " /><path fill="rgb(128,128,128)" stroke="rgb(128,128,128)" stroke-width="1" opacity="1" d="M 244.5 768 L 246.5 771 L 244.5 768 Z " /><path fill="rgb(128,128,128)" stroke="rgb(128,128,128)" stroke-width="1" opacity="1" d="M 252.5 774 L 253.5 776 L 252.5 774 Z " /><path fill="rgb(128,128,128)" stroke="rgb(128,128,128)" stroke-width="1" opacity="1" d="M 713.5 805 L 712.5 807 L 713.5 805 Z " /><path fill="rgb(128,128,128)" stroke="rgb(128,128,128)" stroke-width="1" opacity="1" d="M 387.5 806 L 392 806.5 L 387.5 807 L 387.5 806 Z " /><path fill="rgb(128,128,128)" stroke="rgb(128,128,128)" stroke-width="1" opacity="1" d="M 400.5 807 L 407 807.5 L 400.5 808 L 400.5 807 Z " /><path fill="rgb(128,128,128)" stroke="rgb(128,128,128)" stroke-width="1" opacity="1" d="M 417.5 808 L 425 808.5 L 417.5 809 L 417.5 808 Z " /><path fill="rgb(128,128,128)" stroke="rgb(128,128,128)" stroke-width="1" opacity="1" d="M 523.5 844 L 526 844.5 L 523.5 845 L 523.5 844 Z " /><path fill="rgb(128,128,128)" stroke="rgb(128,128,128)" stroke-width="1" opacity="1" d="M 534.5 845 L 543 845.5 L 534.5 846 L 534.5 845 Z " /><path fill="rgb(1,29,50)" stroke="rgb(1,29,50)" stroke-width="1" opacity="1" d="M 394.5 155 L 441.5 155 L 442.5 156 L 453.5 156 L 454.5 157 L 476.5 159 L 509.5 166 L 553.5 181 Q 624.6 209.4 681.5 252 Q 701.1 255.9 715.5 265 Q 739.7 278.8 757 299.5 Q 771.8 316.2 779 340.5 L 789 386.5 L 794 425.5 L 795 426.5 L 795 433.5 L 796 436 L 797.5 436 L 808 446.5 L 821.5 467 L 836 480.5 Q 843.8 490.3 848 503.5 L 850 512.5 L 851 526.5 L 850 527.5 L 850 535.5 L 848 545.5 L 842 562.5 L 828 588.5 L 804 620.5 L 801 641.5 L 793 674.5 L 784 703.5 L 774 728.5 Q 758.8 764.3 733.5 790 Q 716.7 805.7 694.5 816 L 670.5 826 L 644.5 834 L 616.5 840 L 597.5 842 L 596.5 843 L 588.5 843 L 587.5 844 L 575.5 844 L 574.5 845 L 530.5 845 L 529.5 844 L 521.5 844 L 504.5 841 L 484.5 835 Q 459 825.5 440.5 809 L 397.5 807 L 396.5 806 L 383.5 806 L 382.5 805 L 351.5 803 L 350.5 802 L 335.5 801 L 327.5 799 L 320.5 799 L 289.5 792 Q 271.4 786.1 256.5 777 Q 243.3 768.7 233 757.5 Q 222.1 745.9 216 729.5 L 213 715.5 L 211 694.5 L 202 651.5 L 162 504.5 L 152 447.5 L 151 427.5 L 150 426.5 L 149 393.5 L 150 392.5 L 151 362.5 L 156 333.5 Q 161.3 310.8 170 291.5 Q 190.2 248.7 224.5 220 Q 256.8 191.8 300.5 175 L 339.5 163 L 366.5 158 L 381.5 157 L 382.5 156 L 393.5 156 L 394.5 155 Z M 396 174 L 395 175 L 384 175 L 383 176 L 376 176 L 357 180 L 352 180 L 311 192 Q 270 207 241 233 Q 211 258 193 294 L 187 308 L 179 334 L 175 355 L 174 373 L 173 374 L 173 420 L 174 421 L 174 433 L 175 434 L 177 458 L 184 496 L 195 540 L 211 593 L 223 639 L 223 643 L 233 685 L 238 722 Q 242 734 250 743 Q 270 764 303 773 L 327 778 L 358 781 L 359 782 L 391 784 L 392 785 L 405 785 L 406 786 L 447 787 L 452 788 Q 466 804 489 813 L 515 821 L 527 822 L 528 823 L 539 823 L 540 824 L 569 824 L 570 823 L 593 822 L 594 821 L 614 819 L 642 813 L 680 800 Q 698 792 714 780 L 735 757 Q 747 740 755 721 L 762 704 L 773 670 L 783 626 L 785 610 Q 803 591 816 569 Q 826 552 830 530 Q 830 502 817 489 L 807 479 L 802 477 Q 800 467 793 460 L 782 448 L 778 446 L 775 442 L 774 427 L 769 400 L 769 394 L 760 351 L 753 330 L 738 308 Q 724 293 707 282 Q 692 273 672 269 Q 643 247 611 229 Q 575 209 535 194 L 504 184 L 470 177 L 455 176 L 454 175 L 443 175 L 442 174 L 396 174 Z " /></svg>